<?xml version="1.0" encoding="utf-8"?>
<!-- Generator: Adobe Illustrator 26.0.0, SVG Export Plug-In . SVG Version: 6.00 Build 0)  -->
<svg version="1.1" id="Capa_1" xmlns="http://www.w3.org/2000/svg" xmlns:xlink="http://www.w3.org/1999/xlink" x="0px" y="0px"
	 viewBox="0 0 1400 3081.3" style="enable-background:new 0 0 1400 3081.3;" xml:space="preserve">
<style type="text/css">
	.st0{fill:#8368CF;}
	.st1{fill:#20C9AC;}
</style>
<path class="st0" d="M174.8,2705.7c0.2,0.8-0.3,1.6-1.1,1.8c-0.3,0.1-0.7,0-1-0.1l-25.5,35.1c0.1,0.1,0.2,0.2,0.2,0.4
	c0.1,0.5-0.2,1-0.7,1.1c-0.3,0.1-0.7,0-0.9-0.3l-5.9,2.6c-0.1,0.5-0.6,0.9-1.1,0.8c-0.3-0.1-0.6-0.3-0.7-0.6l-7.1-1.2
	c-0.1,0.3-0.4,0.5-0.7,0.6c-0.3,0.1-0.7,0-0.9-0.3l-10,8.6c0,0,0,0.1,0,0.1c0.3,0.5,0.1,1.1-0.4,1.4c-0.5,0.3-1.1,0.1-1.4-0.4
	c-0.1-0.2-0.1-0.4-0.1-0.5c0,0,0-0.1,0-0.1l-31.7-6.7c-0.2,0.4-0.6,0.7-1,0.8c-0.8,0.2-1.6-0.3-1.8-1.1c0,0,0,0,0,0l0,0l-53,0.5
	c0,0.4-0.3,0.7-0.7,0.8c-0.6,0-1-0.5-1-1c0-0.4,0.2-0.7,0.5-0.8c0.5-0.1,1,0.2,1.1,0.7l53-0.4c0-0.7,0.5-1.3,1.2-1.4
	c0.8-0.2,1.6,0.3,1.8,1.1c0,0,0,0,0,0c0,0.2,0,0.4,0,0.6l31.6,6.7c0.1-0.3,0.3-0.6,0.7-0.6l3.2-30.1c-0.8,0-1.5-0.7-1.5-1.5
	c0-0.4,0.1-0.7,0.4-1l-21-18.1c-0.1,0.1-0.3,0.2-0.5,0.2c-0.6,0.1-1.2-0.2-1.4-0.9c-0.1-0.6,0.2-1.2,0.9-1.4
	c0.6-0.1,1.2,0.2,1.4,0.9c0.1,0.3,0,0.6-0.1,0.9l21.1,18.1c0.1-0.1,0.3-0.2,0.4-0.2c0.8-0.2,1.6,0.3,1.8,1.1
	c0.2,0.8-0.3,1.6-1.1,1.8l-3.2,30.2c0.2,0,0.4,0.1,0.6,0.3l10-8.6c0,0,0-0.1,0-0.1c-0.1-0.5,0.2-1,0.7-1.1c0.5-0.1,1,0.2,1.1,0.7
	c0,0.1,0,0.1,0,0.2l7,1.2c0.1-0.4,0.4-0.7,0.7-0.8c0.4-0.1,0.9,0.1,1.1,0.5l5.8-2.6c0,0,0-0.1,0-0.1c-0.1-0.5,0.2-1,0.7-1.1
	c0,0,0,0,0,0c0.2-0.1,0.4,0,0.6,0.1l25.5-35c-0.2-0.2-0.4-0.5-0.5-0.8l-20.2,4.5c-0.2,0.5-0.8,0.7-1.3,0.5c-0.2-0.1-0.4-0.3-0.5-0.6
	c0-0.2,0-0.4,0.1-0.6l-12.7-19.3c-0.6,0-1-0.5-0.9-1.1c0-0.3,0.2-0.6,0.5-0.8l7-39.8c-0.4-0.1-0.7-0.5-0.8-0.9
	c-0.2-0.7,0.2-1.4,0.9-1.6c0.7-0.2,1.4,0.2,1.6,0.9c0,0.1,0,0.1,0,0.2c0.2,0.7-0.2,1.4-0.9,1.5c0,0-0.1,0-0.1,0c-0.1,0-0.3,0-0.4,0
	l-7,39.6c0.4,0.1,0.7,0.4,0.8,0.7c0.1,0.4-0.1,0.8-0.4,1l12.5,19.2c0.1-0.1,0.2-0.1,0.4-0.2c0.5-0.1,1,0.2,1.1,0.7v0.1l20.1-4.5
	c0-0.7,0.5-1.3,1.1-1.4C173.8,2704.4,174.6,2704.9,174.8,2705.7C174.8,2705.7,174.8,2705.7,174.8,2705.7z"/>
<path class="st0" d="M997.3,2405.7c0,0,1.2,17.3-11,17.1c0,0,11.2,1.1,12.5,16.9c0,0-1.3-15.8,10.9-16.6
	C1009.6,2423.2,998,2419.9,997.3,2405.7z"/>
<path class="st0" d="M51.1,284.5c0,0,1.2,17.3-11,17.1c0,0,11.2,1.1,12.5,16.9c0,0-1.3-15.8,10.9-16.5
	C63.5,301.9,51.8,298.6,51.1,284.5z"/>
<path class="st0" d="M1274.4,295.4c0-5.6,4.5-10.1,10.1-10.1s10.1,4.5,10.1,10.1c0,5.6-4.5,10.1-10.1,10.1S1274.4,301,1274.4,295.4
	L1274.4,295.4z M1284.5,305.4c5.5,0,10-4.5,10-10s-4.5-10-10-10s-10,4.5-10,10C1274.6,300.9,1279,305.4,1284.5,305.4L1284.5,305.4z"
	/>
<path class="st0" d="M1172,821.1l-14.9,7.9c-1.7-1.1-3.8-1.4-5.8-0.8l-11.8-11.2l7.7,14.2l0.1-0.1c-1.3,1.9-1.6,4.4-0.8,6.5
	l-11.2,11.8l14.9-7.8l0,0c1.7,0.8,3.7,0.9,5.5,0.3l-0.1,0.1l12.3,11.6l-8.2-15c0.9-1.6,1.2-3.6,0.7-5.4l0.1,0.1L1172,821.1z"/>
<path class="st0" d="M1128.5,1475.4c18.4,4.4,49,5.4,63.8-8.5c2.1-2,0.6-6.2-2.5-6c-9.2,0.7-17.8,5.5-26.8,7.6
	c-11.1,2.6-22.7,3.2-34,3.3C1127,1471.8,1126.4,1474.9,1128.5,1475.4L1128.5,1475.4z"/>
<path class="st0" d="M1328.9,1134h-0.1l0.9-0.1h-0.4l0.9,0.1c-0.1,0-0.2,0-0.3-0.1l0.8,0.3c-0.1-0.1-0.3-0.1-0.4-0.2l0.7,0.5
	c-0.1-0.1-0.2-0.2-0.3-0.3l0.5,0.7c-0.1-0.2-0.2-0.3-0.3-0.5l0.3,0.8c-0.1-0.2-0.1-0.4-0.2-0.6l0.1,0.9c0-0.2,0-0.3,0-0.5l-0.1,0.9
	c0-0.1,0.1-0.3,0.1-0.4l-0.3,0.8c0.1-0.1,0.1-0.2,0.2-0.3l-0.5,0.7c0.1-0.1,0.2-0.2,0.2-0.2l-0.7,0.5c0.1-0.1,0.2-0.1,0.3-0.2
	l-0.8,0.3c0.1-0.1,0.2-0.1,0.3-0.1l-0.9,0.1h0.4l-0.9-0.1c0.1,0,0.3,0.1,0.4,0.1l-0.8-0.3c0.2,0.1,0.3,0.2,0.5,0.3l-0.7-0.5
	c0.2,0.1,0.3,0.3,0.4,0.4l-0.5-0.7c0.1,0.2,0.2,0.3,0.3,0.5l-0.3-0.8c0.1,0.2,0.1,0.3,0.1,0.5l-0.1-0.9c0,0.1,0,0.3,0,0.4l0.1-0.9
	c0,0.1,0,0.2-0.1,0.4l0.3-0.8c-0.1,0.1-0.1,0.2-0.2,0.3l0.5-0.7l0,0c-0.3,0.3-0.5,0.6-0.7,1c-0.5,1.2-0.2,2.6,0.7,3.6
	c0.6,0.6,1.4,1,2.3,1l0.9-0.1c0.5-0.2,1-0.4,1.4-0.8c0.2-0.3,0.5-0.6,0.7-0.8c0.2-0.3,0.3-0.7,0.4-1c0.1-0.4,0.2-0.9,0.2-1.3
	c0-0.2,0-0.4-0.1-0.7c0-0.2,0-0.4-0.1-0.7l-0.1-0.2c-0.1-0.3-0.3-0.7-0.4-1l-0.1-0.2c-0.2-0.3-0.4-0.6-0.7-0.8
	c-0.3-0.3-0.6-0.6-1-0.8c-0.1-0.1-0.3-0.2-0.5-0.3c-0.3-0.2-0.7-0.3-1-0.4c-0.4-0.1-0.7-0.1-1.1-0.2h-0.4c-0.3,0-0.7,0.1-1,0.1
	c-0.9,0.2-1.6,0.7-2.2,1.3c-0.5,0.5-0.8,1.1-1,1.8c-0.1,0.4-0.2,0.9-0.2,1.3c0,0.4,0,0.9,0.1,1.3c0,0.2,0.1,0.3,0.1,0.5
	c0.1,0.3,0.3,0.7,0.4,1l0.1,0.2c0.1,0.2,0.3,0.4,0.4,0.6c0.1,0.2,0.3,0.4,0.4,0.5c0.3,0.3,0.7,0.6,1.1,0.8c0.4,0.2,0.8,0.4,1.2,0.5
	c0.7,0.2,1.5,0.2,2.2,0c0.4-0.1,0.8-0.3,1.1-0.6c0.7-0.5,1.2-1.3,1.2-2.1c0.1-0.4,0.1-0.9-0.1-1.3l-0.3-0.8
	c-0.3-0.5-0.7-0.9-1.2-1.2l-0.8-0.3C1330.2,1133.8,1329.6,1133.8,1328.9,1134L1328.9,1134z"/>
<path class="st0" d="M284.3,836.7h-0.1l0.9-0.1c-0.1,0-0.2,0-0.4,0l0.9,0.1c-0.1,0-0.2,0-0.3-0.1l0.8,0.3c-0.1-0.1-0.3-0.1-0.4-0.2
	l0.7,0.5c-0.1-0.1-0.2-0.2-0.4-0.3l0.5,0.7c-0.1-0.2-0.2-0.3-0.3-0.5l0.3,0.8c-0.1-0.2-0.1-0.4-0.2-0.6l0.1,0.9c0-0.2,0-0.3,0-0.5
	l-0.1,0.9c0-0.1,0.1-0.3,0.1-0.4l-0.3,0.8c0-0.1,0.1-0.2,0.2-0.3l-0.5,0.7c0.1-0.1,0.2-0.2,0.2-0.2l-0.6,0.5
	c0.1-0.1,0.2-0.1,0.3-0.2l-0.8,0.3c0.1,0,0.2-0.1,0.3-0.1l-0.9,0.1h0.4l-0.9-0.1c0.1,0,0.3,0.1,0.4,0.1l-0.8-0.3
	c0.2,0.1,0.3,0.2,0.5,0.3l-0.7-0.5c0.2,0.1,0.3,0.3,0.4,0.4l-0.5-0.7c0.1,0.2,0.2,0.3,0.3,0.5l-0.3-0.8c0.1,0.2,0.1,0.3,0.1,0.5
	l-0.1-0.9c0,0.1,0,0.3,0,0.4l0.1-0.9c0,0.1-0.1,0.2-0.1,0.4l0.3-0.8c-0.1,0.1-0.1,0.2-0.2,0.3l0.5-0.7l0,0c-0.3,0.3-0.5,0.6-0.7,1
	c-0.5,1.2-0.2,2.6,0.7,3.6c0.6,0.6,1.4,1,2.3,1l0.9-0.1c0.5-0.1,1-0.4,1.4-0.8c0.2-0.3,0.5-0.6,0.6-0.9c0.2-0.3,0.3-0.7,0.4-1
	c0.1-0.4,0.2-0.9,0.2-1.3c0-0.2,0-0.4-0.1-0.7c0-0.2,0-0.5-0.1-0.7c0-0.1-0.1-0.2-0.1-0.2c-0.1-0.3-0.3-0.7-0.4-1
	c0-0.1-0.1-0.2-0.1-0.2c-0.2-0.3-0.4-0.6-0.7-0.8c-0.3-0.3-0.6-0.6-1-0.9c-0.1-0.1-0.3-0.2-0.5-0.3c-0.3-0.2-0.7-0.3-1-0.4
	c-0.4-0.1-0.7-0.1-1.1-0.2c-0.1,0-0.2,0-0.2,0h-0.1c-0.3,0-0.7,0.1-1,0.1c-0.2,0.1-0.4,0.1-0.6,0.2c-0.2,0.1-0.4,0.2-0.6,0.3
	c-0.4,0.2-0.7,0.5-1,0.8c-0.5,0.5-0.8,1.1-1,1.8c-0.1,0.4-0.2,0.9-0.2,1.3c0,0.4,0,0.9,0.1,1.3c0,0.2,0.1,0.3,0.1,0.5
	c0.1,0.3,0.3,0.7,0.4,1l0.1,0.2c0.1,0.2,0.3,0.4,0.4,0.5c0.1,0.2,0.3,0.4,0.4,0.5c0.3,0.3,0.7,0.6,1.1,0.8c0.4,0.2,0.8,0.4,1.2,0.5
	c0.7,0.2,1.5,0.2,2.2,0c0.4-0.1,0.8-0.3,1.1-0.6c1-0.8,1.5-2.1,1.2-3.4l-0.3-0.8c-0.3-0.5-0.7-0.9-1.2-1.2l-0.8-0.3
	C285.5,836.5,284.9,836.5,284.3,836.7L284.3,836.7z"/>
<path class="st0" d="M115.1,659.2h-0.1l0.9-0.1c-0.1,0-0.2,0-0.3,0l0.9,0.1l-0.3-0.1l0.8,0.3c-0.1-0.1-0.3-0.1-0.4-0.2l0.7,0.5
	c-0.1-0.1-0.2-0.2-0.3-0.3l0.5,0.7c-0.1-0.2-0.2-0.3-0.3-0.5l0.3,0.8c-0.1-0.2-0.1-0.4-0.2-0.6l0.1,0.9c0-0.2,0-0.3,0-0.5l-0.1,0.9
	c0-0.1,0.1-0.3,0.1-0.4l-0.3,0.8c0-0.1,0.1-0.2,0.2-0.3l-0.5,0.7c0.1-0.1,0.2-0.2,0.3-0.2l-0.7,0.5c0.1-0.1,0.2-0.1,0.3-0.2
	l-0.8,0.3c0.1,0,0.2-0.1,0.3-0.1l-0.9,0.1h0.4l-0.9-0.1c0.1,0,0.3,0.1,0.4,0.1l-0.8-0.3c0.2,0.1,0.3,0.2,0.5,0.3l-0.7-0.5
	c0.2,0.1,0.3,0.3,0.4,0.4l-0.5-0.7c0.1,0.2,0.2,0.3,0.3,0.5l-0.3-0.8c0.1,0.2,0.1,0.3,0.1,0.5l-0.1-0.9c0,0.1,0,0.3,0,0.4l0.1-0.9
	c0,0.1-0.1,0.2-0.1,0.4l0.3-0.8c-0.1,0.1-0.1,0.2-0.2,0.3l0.5-0.7l0,0c-0.9,0.9-1.2,2.3-0.7,3.5c0.1,0.4,0.4,0.7,0.7,1
	c0.6,0.6,1.4,1,2.3,1l0.9-0.1c0.5-0.1,1-0.4,1.4-0.8c0.2-0.3,0.5-0.5,0.6-0.8c0.2-0.3,0.3-0.7,0.4-1c0.1-0.4,0.2-0.9,0.2-1.3
	c0-0.2,0-0.4-0.1-0.7c0-0.2-0.1-0.4-0.1-0.7c0-0.1,0-0.2-0.1-0.2c-0.1-0.3-0.3-0.7-0.4-1c-0.1-0.1-0.1-0.2-0.2-0.2
	c-0.2-0.3-0.4-0.6-0.7-0.8c-0.3-0.3-0.6-0.6-1-0.9c-0.1-0.1-0.3-0.2-0.5-0.3c-0.3-0.2-0.7-0.3-1-0.4c-0.4-0.1-0.7-0.1-1.1-0.2
	c-0.1,0-0.2,0-0.2,0h-0.1c-0.3,0-0.7,0.1-1,0.1c-0.2,0.1-0.4,0.1-0.6,0.2c-0.2,0.1-0.4,0.2-0.6,0.3c-0.4,0.2-0.7,0.5-1,0.8
	c-0.5,0.5-0.8,1.1-1,1.8c-0.1,0.4-0.2,0.9-0.2,1.3c0,0.4,0,0.9,0.1,1.3c0,0.2,0.1,0.3,0.1,0.5c0.1,0.3,0.3,0.7,0.4,1
	c0,0.1,0.1,0.2,0.1,0.2c0.1,0.2,0.3,0.4,0.4,0.5c0.1,0.2,0.3,0.4,0.4,0.5c0.3,0.3,0.7,0.6,1.1,0.8c0.4,0.2,0.8,0.4,1.2,0.5
	c0.7,0.2,1.5,0.2,2.2,0c0.4-0.1,0.8-0.3,1.1-0.6c0.4-0.2,0.6-0.5,0.8-0.9c0.2-0.4,0.4-0.8,0.4-1.2c0.1-0.4,0.1-0.9,0-1.3l-0.3-0.8
	c-0.3-0.5-0.7-0.9-1.2-1.2l-0.8-0.3C116.3,659,115.7,659,115.1,659.2L115.1,659.2z"/>
<circle class="st0" cx="225.1" cy="1481" r="0.8"/>
<circle class="st0" cx="302.1" cy="779.3" r="0.8"/>
<circle class="st0" cx="311.2" cy="1409.3" r="0.8"/>
<circle class="st0" cx="87.8" cy="449.5" r="0.8"/>
<circle class="st0" cx="1155.3" cy="1164.1" r="0.8"/>
<circle class="st0" cx="64" cy="208.8" r="0.8"/>
<circle class="st0" cx="312" cy="1501.8" r="0.8"/>
<circle class="st0" cx="256.2" cy="1340.6" r="0.8"/>
<circle class="st0" cx="1100.9" cy="1194.2" r="0.8"/>
<circle class="st0" cx="1174.1" cy="1215.9" r="0.8"/>
<circle class="st0" cx="265.4" cy="588.2" r="0.8"/>
<circle class="st0" cx="1177.4" cy="408.1" r="0.8"/>
<circle class="st0" cx="1100.9" cy="1076" r="0.8"/>
<circle class="st0" cx="240.3" cy="778.5" r="0.8"/>
<circle class="st0" cx="1190.8" cy="1129.2" r="0.8"/>
<circle class="st0" cx="65.6" cy="648.8" r="0.8"/>
<circle class="st0" cx="93.8" cy="525.3" r="0.8"/>
<circle class="st0" cx="84" cy="588.2" r="0.8"/>
<path class="st0" d="M1305.4,210.2c0,5.6-4.5,10.1-10.1,10.1s-10.1-4.5-10.1-10.1c0-5.6,4.5-10.1,10.1-10.1c0,0,0,0,0,0
	C1300.9,200.1,1305.4,204.6,1305.4,210.2z M1295.3,200.2c-5.5,0-10,4.5-10,10c0,5.5,4.5,10,10,10s10-4.5,10-10c0,0,0,0,0,0
	C1305.3,204.7,1300.8,200.2,1295.3,200.2z"/>
<path class="st0" d="M1350.7,248c0,5.6-4.5,10.1-10.1,10.1s-10.1-4.5-10.1-10.1c0-5.6,4.5-10.1,10.1-10.1
	C1346.1,237.9,1350.7,242.4,1350.7,248z M1340.6,238c-5.5,0-10,4.5-10,10s4.5,10,10,10s10-4.5,10-10
	C1350.5,242.5,1346,238.1,1340.6,238L1340.6,238z"/>
<circle class="st0" cx="192.8" cy="562.1" r="0.8"/>
<circle class="st0" cx="1155.3" cy="1063.2" r="0.8"/>
<circle class="st0" cx="319" cy="1368" r="0.8"/>
<circle class="st0" cx="109.1" cy="359.1" r="0.8"/>
<circle class="st0" cx="984.4" cy="163.7" r="0.8"/>
<circle class="st0" cx="148.3" cy="573.6" r="0.8"/>
<circle class="st0" cx="274.5" cy="1430.1" r="0.8"/>
<path class="st0" d="M974.2,648.2H974l0.9-0.1h-0.4l0.9,0.1c-0.1,0-0.2,0-0.3-0.1l0.8,0.3c-0.1-0.1-0.3-0.1-0.4-0.2l0.7,0.5
	c-0.1-0.1-0.2-0.2-0.3-0.3l0.5,0.7c-0.1-0.2-0.2-0.3-0.3-0.5l0.3,0.8c-0.1-0.2-0.1-0.4-0.2-0.6l0.1,0.9c0-0.2,0-0.3,0-0.5l-0.1,0.9
	c0-0.1,0.1-0.3,0.1-0.4l-0.3,0.8c0.1-0.1,0.1-0.2,0.2-0.3l-0.5,0.7c0.1-0.1,0.2-0.2,0.2-0.2l-0.7,0.5c0.1-0.1,0.2-0.1,0.3-0.2
	l-0.8,0.3c0.1,0,0.2-0.1,0.3-0.1l-0.9,0.1c0.1,0,0.2,0,0.4,0l-0.9-0.1c0.1,0,0.3,0.1,0.4,0.1l-0.8-0.3c0.2,0.1,0.3,0.2,0.5,0.3
	l-0.7-0.5c0.2,0.1,0.3,0.3,0.4,0.4l-0.5-0.7c0.1,0.2,0.2,0.3,0.3,0.5l-0.3-0.8c0.1,0.2,0.1,0.3,0.1,0.5l-0.1-0.9c0,0.1,0,0.3,0,0.4
	l0.1-0.9c0,0.1-0.1,0.2-0.1,0.4l0.3-0.8c0,0.1-0.1,0.2-0.2,0.3l0.5-0.7l0,0c-0.3,0.3-0.5,0.6-0.7,1c-0.4,0.8-0.4,1.7,0,2.5
	c0.1,0.4,0.4,0.8,0.7,1c0.6,0.6,1.4,1,2.3,1l0.9-0.1c0.5-0.2,1-0.4,1.4-0.8c0.2-0.3,0.5-0.6,0.7-0.8c0.2-0.3,0.3-0.7,0.4-1
	c0.1-0.4,0.2-0.9,0.2-1.3c0-0.2,0-0.4-0.1-0.7c0-0.2-0.1-0.4-0.1-0.7l-0.1-0.2c-0.1-0.3-0.3-0.7-0.4-1c0-0.1-0.1-0.2-0.1-0.2
	c-0.2-0.3-0.4-0.6-0.7-0.8c-0.3-0.3-0.6-0.6-1-0.8c-0.1-0.1-0.3-0.2-0.5-0.3c-0.3-0.2-0.7-0.3-1-0.4c-0.4-0.1-0.7-0.1-1.1-0.2h-0.4
	c-0.3,0-0.7,0.1-1,0.1c-0.2,0.1-0.4,0.1-0.6,0.2c-0.2,0.1-0.4,0.2-0.6,0.3c-0.4,0.2-0.7,0.5-1,0.8c-0.5,0.5-0.8,1.1-1,1.8
	c-0.1,0.4-0.2,0.9-0.2,1.3c0,0.4,0,0.9,0.1,1.3c0,0.2,0.1,0.3,0.1,0.5c0.1,0.3,0.3,0.7,0.4,1l0.1,0.2c0.1,0.2,0.3,0.4,0.4,0.5
	c0.1,0.2,0.3,0.4,0.4,0.5c0.3,0.3,0.7,0.6,1.1,0.8c0.4,0.2,0.8,0.4,1.2,0.5c0.7,0.2,1.5,0.2,2.2,0c0.4-0.1,0.8-0.3,1.1-0.6
	c0.7-0.5,1.1-1.3,1.2-2.1c0.1-0.4,0.1-0.9-0.1-1.3l-0.3-0.8c-0.3-0.5-0.7-0.9-1.2-1.2l-0.8-0.3C975.4,647.9,974.8,647.9,974.2,648.2
	L974.2,648.2z"/>
<circle class="st0" cx="1072.7" cy="704" r="0.8"/>
<circle class="st0" cx="1063.2" cy="581.7" r="0.8"/>
<circle class="st0" cx="1153.7" cy="619.1" r="0.8"/>
<circle class="st0" cx="1107.2" cy="657.8" r="0.8"/>
<circle class="st0" cx="1178.2" cy="723.8" r="0.8"/>
<circle class="st0" cx="1165.9" cy="513.2" r="0.8"/>
<path class="st0" d="M1164.6,986.1h-0.1l0.9-0.1h-0.4l0.9,0.1c-0.1,0-0.2,0-0.3-0.1l0.8,0.3c-0.1-0.1-0.3-0.1-0.4-0.2l0.7,0.5
	c-0.1-0.1-0.2-0.2-0.3-0.3l0.5,0.7c-0.1-0.2-0.2-0.3-0.3-0.5l0.3,0.8c-0.1-0.2-0.1-0.4-0.2-0.6l0.1,0.9c0-0.2,0-0.3,0-0.5l-0.1,0.9
	c0-0.1,0.1-0.3,0.1-0.4l-0.3,0.8c0.1-0.1,0.1-0.2,0.2-0.3l-0.5,0.7c0.1-0.1,0.2-0.2,0.2-0.2l-0.7,0.5c0.1-0.1,0.2-0.1,0.3-0.2
	l-0.8,0.3l0.3-0.1l-0.9,0.1h0.4l-0.9-0.1c0.1,0,0.3,0.1,0.4,0.1l-0.8-0.3c0.2,0.1,0.3,0.2,0.5,0.3l-0.7-0.5c0.2,0.1,0.3,0.3,0.4,0.4
	l-0.5-0.7c0.1,0.2,0.2,0.3,0.3,0.5l-0.3-0.8c0.1,0.2,0.1,0.3,0.1,0.5l-0.1-0.9c0,0.1,0,0.3,0,0.4l0.1-0.9c0,0.1-0.1,0.2-0.1,0.4
	l0.3-0.8c0,0.1-0.1,0.2-0.2,0.3l0.5-0.7l0,0c-0.6,0.6-0.9,1.4-1,2.3c0,0.4,0.1,0.9,0.3,1.2c0.1,0.4,0.4,0.7,0.7,1
	c0.6,0.6,1.4,1,2.3,1l0.9-0.1c0.5-0.2,1-0.4,1.4-0.8c0.2-0.3,0.5-0.6,0.7-0.8c0.2-0.3,0.3-0.7,0.4-1c0.1-0.4,0.2-0.9,0.2-1.3
	c0-0.2,0-0.4-0.1-0.7c0-0.2-0.1-0.4-0.1-0.7l-0.1-0.2c-0.1-0.3-0.3-0.7-0.4-1c0-0.1-0.1-0.2-0.1-0.2c-0.2-0.3-0.4-0.6-0.7-0.8
	c-0.3-0.3-0.6-0.6-1-0.8c-0.1-0.1-0.3-0.2-0.4-0.3c-0.3-0.2-0.7-0.3-1-0.4c-0.4-0.1-0.7-0.1-1.1-0.2h-0.4c-0.3,0-0.7,0.1-1,0.1
	c-0.2,0.1-0.4,0.1-0.6,0.2c-0.2,0.1-0.4,0.2-0.6,0.3c-0.4,0.2-0.7,0.5-1,0.8c-0.5,0.5-0.8,1.1-1,1.8c-0.1,0.4-0.2,0.9-0.2,1.3
	c0,0.4,0,0.9,0.1,1.3c0,0.2,0.1,0.3,0.1,0.5c0.1,0.3,0.3,0.7,0.4,1l0.1,0.2c0.1,0.2,0.3,0.4,0.4,0.5c0.1,0.2,0.3,0.4,0.4,0.5
	c0.3,0.3,0.7,0.6,1.1,0.8c0.4,0.2,0.8,0.4,1.2,0.5c0.7,0.2,1.5,0.2,2.2,0c0.8-0.3,1.5-0.8,1.9-1.5c0.2-0.4,0.4-0.8,0.4-1.2
	c0.1-0.4,0.1-0.9-0.1-1.3l-0.3-0.8c-0.3-0.5-0.7-0.9-1.2-1.2l-0.8-0.3C1165.8,985.9,1165.2,985.9,1164.6,986.1L1164.6,986.1z"/>
<circle class="st0" cx="1073.5" cy="838" r="0.8"/>
<circle class="st0" cx="1074.3" cy="921.1" r="0.8"/>
<circle class="st0" cx="1042.8" cy="870.1" r="0.8"/>
<circle class="st0" cx="1134.5" cy="899" r="0.8"/>
<circle class="st0" cx="1099.3" cy="982.4" r="0.8"/>
<path class="st0" d="M1324.7,513.8h0.1l-0.9-0.1c0.1,0,0.2,0.1,0.3,0.1l-0.8-0.3c0.1,0,0.2,0.1,0.3,0.2l-0.7-0.5
	c0.1,0.1,0.2,0.2,0.3,0.3l-0.5-0.7c0.1,0.1,0.2,0.3,0.2,0.4l-0.3-0.8c0.1,0.2,0.1,0.4,0.2,0.6l-0.1-0.8c0,0.2,0,0.4,0,0.6l0.1-0.9
	c0,0.2-0.1,0.3-0.1,0.5l0.3-0.8c-0.1,0.1-0.1,0.3-0.2,0.4l0.5-0.7c-0.1,0.1-0.2,0.2-0.2,0.2l0.7-0.5c-0.1,0.1-0.2,0.1-0.3,0.2
	l0.8-0.3c-0.1,0-0.2,0.1-0.3,0.1l0.8-0.1c-0.1,0-0.2,0-0.3,0l0.9,0.1c-0.1,0-0.2-0.1-0.3-0.1l0.8,0.3c-0.1-0.1-0.3-0.1-0.4-0.2
	l0.7,0.5c-0.1-0.1-0.3-0.2-0.4-0.4l0.5,0.7c-0.1-0.2-0.2-0.3-0.3-0.5l0.3,0.8c-0.1-0.2-0.1-0.4-0.2-0.5l0.1,0.8c0-0.2,0-0.3,0-0.5
	l-0.1,0.9c0-0.1,0.1-0.3,0.1-0.4l-0.3,0.8c0-0.1,0.1-0.2,0.2-0.3l-0.5,0.7c0.1-0.1,0.2-0.2,0.3-0.2l-0.7,0.5l0,0
	c0.4-0.2,0.7-0.5,0.9-0.8c0.3-0.3,0.5-0.7,0.6-1.1c0.1-0.4,0.1-0.9,0-1.3c0-0.4-0.1-0.8-0.4-1.2c-0.4-0.8-1.2-1.3-2-1.5l-0.9-0.1
	c-0.6,0-1.1,0.2-1.6,0.4c-0.3,0.2-0.6,0.4-0.8,0.7c-0.2,0.3-0.5,0.5-0.7,0.8c-0.2,0.4-0.4,0.8-0.5,1.2c-0.1,0.2-0.1,0.4-0.1,0.7
	c0,0.2-0.1,0.4-0.1,0.7c0,0.1,0,0.2,0,0.3c0,0.4,0.1,0.7,0.2,1.1c0,0.1,0,0.2,0.1,0.3c0.1,0.3,0.3,0.7,0.4,1
	c0.2,0.4,0.5,0.8,0.8,1.1c0.1,0.1,0.2,0.3,0.4,0.4c0.3,0.2,0.6,0.5,0.8,0.7c0.3,0.2,0.7,0.3,1,0.4l0.2,0.1h0.1c0.3,0,0.7,0.1,1,0.1
	c0.2,0,0.4,0,0.7-0.1c0.2,0,0.5-0.1,0.7-0.1c0.4-0.1,0.8-0.3,1.2-0.5c0.6-0.4,1.1-0.9,1.5-1.5c0.2-0.4,0.4-0.8,0.6-1.2
	c0.1-0.4,0.2-0.9,0.2-1.3c0-0.2,0-0.3,0-0.5c0-0.4-0.1-0.7-0.1-1c0-0.1,0-0.2-0.1-0.2c-0.1-0.2-0.2-0.4-0.2-0.6
	c-0.1-0.2-0.2-0.4-0.3-0.6c-0.2-0.4-0.5-0.8-0.8-1.1c-0.3-0.3-0.7-0.6-1.1-0.8c-0.7-0.4-1.4-0.6-2.2-0.6c-0.4,0-0.8,0.1-1.2,0.3
	c-0.4,0.1-0.7,0.4-1,0.7c-0.3,0.3-0.6,0.7-0.7,1.1c-0.2,0.4-0.3,0.8-0.3,1.3l0.1,0.8c0.2,0.5,0.4,1,0.8,1.4l0.7,0.5
	C1323.5,513.7,1324,513.9,1324.7,513.8L1324.7,513.8z"/>
<circle class="st0" cx="1194.8" cy="303.4" r="0.8"/>
<circle class="st0" cx="1263.5" cy="442.2" r="0.8"/>
<circle class="st0" cx="1361.5" cy="231.4" r="0.8"/>
<circle class="st0" cx="1215" cy="222.5" r="0.8"/>
<circle class="st0" cx="1284.5" cy="210" r="0.8"/>
<circle class="st0" cx="1339.7" cy="368.4" r="0.8"/>
<circle class="st0" cx="1279.2" cy="685" r="0.8"/>
<circle class="st0" cx="1360.2" cy="600.2" r="0.8"/>
<circle class="st0" cx="1313.7" cy="638.8" r="0.8"/>
<path class="st0" d="M129.4,958.2h-0.1l0.9-0.1h-0.4l0.9,0.1c-0.1,0-0.2,0-0.3-0.1l0.8,0.3c-0.1-0.1-0.3-0.1-0.4-0.2l0.7,0.5
	c-0.1-0.1-0.2-0.2-0.4-0.3l0.5,0.7c-0.1-0.2-0.2-0.3-0.3-0.5l0.3,0.8c-0.1-0.2-0.1-0.4-0.2-0.6l0.1,0.9c0-0.2,0-0.4,0-0.5l-0.1,0.9
	c0-0.1,0.1-0.3,0.1-0.4l-0.3,0.8c0-0.1,0.1-0.2,0.2-0.3l-0.5,0.7c0.1-0.1,0.2-0.2,0.3-0.3l-0.7,0.5c0.1-0.1,0.2-0.1,0.3-0.2
	l-0.8,0.3l0.3-0.1l-0.9,0.1c0.1,0,0.2,0,0.4,0l-0.9-0.1c0.1,0,0.3,0.1,0.4,0.1l-0.8-0.3c0.2,0.1,0.3,0.2,0.5,0.3l-0.6-0.5
	c0.2,0.1,0.3,0.3,0.4,0.4l-0.5-0.7c0.1,0.1,0.2,0.3,0.3,0.5l-0.3-0.8c0.1,0.2,0.1,0.3,0.1,0.5l-0.1-0.9c0,0.1,0,0.3,0,0.4l0.1-0.9
	c0,0.1-0.1,0.2-0.1,0.4l0.3-0.8c0,0.1-0.1,0.2-0.2,0.3l0.5-0.7l0,0c-0.3,0.3-0.5,0.6-0.7,1c-0.5,1.2-0.2,2.6,0.7,3.5
	c0.6,0.6,1.4,1,2.3,1l0.9-0.1c0.5-0.2,1-0.4,1.4-0.8c0.2-0.3,0.4-0.6,0.6-0.8c0.2-0.3,0.3-0.7,0.4-1c0.1-0.4,0.2-0.9,0.2-1.3
	c0-0.2,0-0.4-0.1-0.7c0-0.2-0.1-0.4-0.1-0.7c0-0.1-0.1-0.2-0.1-0.2c-0.1-0.3-0.3-0.7-0.4-1L134,957c-0.2-0.3-0.4-0.6-0.6-0.8
	c-0.3-0.3-0.6-0.6-1-0.8c-0.1-0.1-0.3-0.2-0.5-0.3c-0.3-0.2-0.7-0.3-1-0.4c-0.4-0.1-0.7-0.1-1.1-0.2h-0.4c-0.3,0-0.6,0.1-1,0.1
	c-0.2,0.1-0.4,0.1-0.6,0.2c-0.2,0.1-0.4,0.2-0.6,0.3c-0.4,0.2-0.7,0.5-1,0.8c-0.5,0.5-0.8,1.1-1,1.8c-0.1,0.4-0.2,0.9-0.2,1.3
	c0,0.4,0,0.9,0.1,1.3c0,0.2,0.1,0.3,0.1,0.5c0.1,0.3,0.3,0.7,0.4,1c0,0.1,0.1,0.2,0.1,0.2c0.1,0.2,0.3,0.4,0.4,0.5
	c0.1,0.2,0.3,0.4,0.4,0.5c0.3,0.3,0.7,0.6,1.1,0.8c0.4,0.2,0.8,0.4,1.2,0.5c0.7,0.2,1.5,0.2,2.2,0c0.4-0.1,0.8-0.3,1.1-0.6
	c0.3-0.2,0.6-0.5,0.7-0.9c0.2-0.4,0.4-0.8,0.4-1.2c0.1-0.4,0.1-0.9-0.1-1.3l-0.3-0.8c-0.3-0.5-0.7-0.9-1.2-1.2l-0.8-0.3
	C130.5,958.1,129.9,958.1,129.4,958.2L129.4,958.2z"/>
<path class="st0" d="M76,845.2h-0.1l0.9-0.1c-0.1,0-0.2,0-0.3,0l0.9,0.1c-0.1,0-0.2,0-0.3-0.1l0.8,0.3c-0.1-0.1-0.3-0.1-0.4-0.2
	l0.7,0.5c-0.1-0.1-0.2-0.2-0.3-0.3l0.5,0.7c-0.1-0.2-0.2-0.3-0.3-0.5l0.3,0.8c-0.1-0.2-0.1-0.4-0.2-0.6l0.1,0.9c0-0.2,0-0.3,0-0.5
	l-0.1,0.9c0-0.1,0.1-0.3,0.1-0.4l-0.3,0.8c0-0.1,0.1-0.2,0.2-0.3l-0.5,0.7c0.1-0.1,0.2-0.2,0.3-0.2l-0.7,0.5
	c0.1-0.1,0.2-0.1,0.3-0.2l-0.8,0.3c0.1,0,0.2-0.1,0.3-0.1L76,848h0.4l-0.9-0.1c0.2,0,0.3,0.1,0.5,0.1l-0.8-0.3
	c0.2,0.1,0.3,0.2,0.5,0.3l-0.7-0.5c0.2,0.1,0.3,0.3,0.4,0.4l-0.5-0.7c0.1,0.2,0.2,0.3,0.3,0.5l-0.3-0.8c0.1,0.2,0.1,0.3,0.1,0.5
	l-0.1-0.9c0,0.1,0,0.3,0,0.4l0.1-0.9c0,0.1-0.1,0.2-0.1,0.4l0.3-0.8c0,0.1-0.1,0.2-0.2,0.3l0.5-0.7l0,0c-0.9,0.9-1.2,2.3-0.7,3.5
	c0.1,0.4,0.4,0.7,0.7,1c0.6,0.6,1.4,1,2.3,1l0.9-0.1c0.5-0.1,1-0.4,1.4-0.8c0.2-0.3,0.4-0.6,0.6-0.8c0.2-0.3,0.3-0.7,0.4-1
	c0.1-0.4,0.2-0.9,0.2-1.3c0-0.2,0-0.4-0.1-0.7c0-0.2-0.1-0.4-0.1-0.7c0-0.1,0-0.2-0.1-0.2c-0.1-0.3-0.3-0.7-0.4-1l-0.2-0.2
	c-0.2-0.3-0.4-0.6-0.7-0.8c-0.3-0.3-0.6-0.6-1-0.9c-0.1-0.1-0.3-0.2-0.5-0.3c-0.3-0.2-0.7-0.3-1-0.4c-0.4-0.1-0.7-0.1-1.1-0.2
	c-0.1,0-0.2,0-0.2,0H76c-0.3,0-0.7,0.1-1,0.1c-0.2,0.1-0.4,0.1-0.6,0.2c-0.2,0.1-0.4,0.2-0.6,0.3c-0.4,0.2-0.7,0.5-1,0.8
	c-0.5,0.5-0.8,1.1-1,1.8c-0.1,0.4-0.2,0.9-0.2,1.3c0,0.4,0,0.9,0.1,1.3c0,0.2,0.1,0.3,0.1,0.5c0.1,0.3,0.3,0.7,0.4,1
	c0,0.1,0.1,0.2,0.1,0.2c0.1,0.2,0.3,0.4,0.4,0.5c0.1,0.2,0.3,0.4,0.4,0.5c0.3,0.3,0.7,0.6,1.1,0.8c0.4,0.2,0.8,0.4,1.2,0.5
	c0.7,0.2,1.5,0.2,2.2,0c0.4-0.1,0.8-0.3,1.1-0.6c0.4-0.2,0.6-0.5,0.8-0.9c0.4-0.8,0.5-1.7,0.3-2.5l-0.3-0.8
	c-0.3-0.5-0.7-0.9-1.2-1.2l-0.8-0.3C77.1,845,76.5,845,76,845.2L76,845.2z"/>
<path class="st0" d="M108.3,1464.1h-0.1l0.9-0.1h-0.4l0.9,0.1c-0.1,0-0.2,0-0.3-0.1l0.8,0.3c-0.1-0.1-0.3-0.1-0.4-0.2l0.7,0.5
	c-0.1-0.1-0.2-0.2-0.3-0.3l0.5,0.7c-0.1-0.2-0.2-0.3-0.3-0.5l0.3,0.8c-0.1-0.2-0.1-0.4-0.2-0.6l0.1,0.9c0-0.2,0-0.3,0-0.5l-0.1,0.9
	c0-0.1,0.1-0.3,0.1-0.4l-0.3,0.8c0.1-0.1,0.1-0.2,0.2-0.3l-0.5,0.7c0.1-0.1,0.2-0.2,0.2-0.2l-0.7,0.5c0.1-0.1,0.2-0.1,0.3-0.2
	l-0.8,0.3c0.1,0,0.2-0.1,0.3-0.1l-0.9,0.1h0.4l-0.9-0.1c0.1,0,0.3,0.1,0.4,0.1l-0.8-0.3c0.2,0.1,0.3,0.2,0.5,0.3l-0.7-0.5
	c0.2,0.1,0.3,0.3,0.4,0.4l-0.5-0.7c0.1,0.2,0.2,0.3,0.3,0.5l-0.3-0.8c0.1,0.2,0.1,0.3,0.1,0.5l-0.1-0.9c0,0.1,0,0.3,0,0.4l0.1-0.9
	c0,0.1-0.1,0.2-0.1,0.4l0.3-0.8c-0.1,0.1-0.1,0.2-0.2,0.3l0.5-0.7l0,0c-0.3,0.3-0.5,0.6-0.7,1.1c-0.4,0.8-0.4,1.7,0,2.5
	c0.1,0.4,0.4,0.7,0.7,1c0.6,0.6,1.4,1,2.3,1l0.9-0.1c0.5-0.2,1-0.4,1.4-0.8c0.2-0.3,0.5-0.6,0.7-0.8c0.2-0.3,0.3-0.7,0.4-1
	c0.1-0.4,0.2-0.9,0.2-1.3c0-0.2,0-0.4-0.1-0.7c0-0.2-0.1-0.4-0.1-0.7l-0.1-0.2c-0.1-0.3-0.3-0.7-0.4-1c0-0.1-0.1-0.2-0.1-0.2
	c-0.2-0.3-0.4-0.6-0.7-0.8c-0.3-0.3-0.6-0.6-1-0.9c-0.1-0.1-0.3-0.2-0.4-0.3c-0.3-0.2-0.7-0.3-1-0.4c-0.4-0.1-0.7-0.1-1.1-0.2
	c-0.1,0-0.2,0-0.3,0h-0.1c-0.3,0-0.7,0.1-1,0.1c-0.2,0.1-0.4,0.1-0.6,0.2c-0.2,0.1-0.4,0.2-0.6,0.3c-0.4,0.2-0.7,0.5-1,0.8
	c-0.5,0.5-0.8,1.1-1,1.8c-0.1,0.4-0.2,0.9-0.2,1.3c0,0.4,0,0.9,0.1,1.3c0,0.2,0.1,0.3,0.1,0.5c0.1,0.3,0.3,0.7,0.4,1l0.1,0.2
	c0.1,0.2,0.3,0.4,0.4,0.6c0.1,0.2,0.3,0.4,0.4,0.5c0.6,0.6,1.4,1.1,2.3,1.3c0.7,0.2,1.5,0.2,2.2,0c0.4-0.1,0.8-0.3,1.1-0.6
	c0.4-0.2,0.6-0.5,0.8-0.9c0.2-0.4,0.4-0.8,0.4-1.2c0.1-0.4,0.1-0.9-0.1-1.3l-0.3-0.8c-0.3-0.5-0.7-0.9-1.2-1.2l-0.8-0.3
	C109.6,1463.9,109,1463.9,108.3,1464.1L108.3,1464.1z"/>
<circle class="st0" cx="81.1" cy="1254.5" r="0.8"/>
<circle class="st0" cx="44.3" cy="955.3" r="0.8"/>
<circle class="st0" cx="57.3" cy="1013.7" r="0.8"/>
<circle class="st0" cx="124.1" cy="1010.4" r="0.8"/>
<circle class="st0" cx="58.9" cy="1453.7" r="0.8"/>
<circle class="st0" cx="87.1" cy="1330.3" r="0.8"/>
<circle class="st0" cx="77.3" cy="1393.2" r="0.8"/>
<circle class="st0" cx="102.4" cy="1164" r="0.8"/>
<circle class="st0" cx="141.6" cy="1378.6" r="0.8"/>
<path class="st0" d="M1347.6,1461.9h-0.1l0.9-0.1h-0.3l0.9,0.1c-0.1,0-0.2,0-0.3-0.1l0.8,0.3c-0.1-0.1-0.3-0.1-0.4-0.2l0.7,0.5
	c-0.1-0.1-0.2-0.2-0.3-0.3l0.5,0.7c-0.1-0.2-0.2-0.3-0.3-0.5l0.3,0.8c-0.1-0.2-0.1-0.4-0.2-0.6l0.1,0.9c0-0.2,0-0.3,0-0.5l-0.1,0.9
	c0-0.1,0.1-0.3,0.1-0.4l-0.3,0.8c0.1-0.1,0.1-0.2,0.2-0.3l-0.5,0.7c0.1-0.1,0.2-0.2,0.2-0.2l-0.7,0.5c0.1-0.1,0.2-0.1,0.3-0.2
	l-0.8,0.3c0.1,0,0.2-0.1,0.3-0.1l-0.9,0.1h0.4l-0.9-0.1c0.1,0,0.3,0.1,0.4,0.1l-0.8-0.3c0.2,0.1,0.3,0.2,0.5,0.3l-0.7-0.5
	c0.2,0.1,0.3,0.3,0.4,0.4l-0.5-0.7c0.1,0.2,0.2,0.3,0.3,0.5l-0.3-0.8c0.1,0.2,0.1,0.3,0.1,0.5l-0.1-0.9c0,0.1,0,0.3,0,0.4l0.1-0.9
	c0,0.1-0.1,0.2-0.1,0.4l0.3-0.8c-0.1,0.1-0.1,0.2-0.2,0.3l0.5-0.7l0,0c-0.3,0.3-0.5,0.6-0.7,1c-0.4,0.8-0.4,1.7,0,2.5
	c0.1,0.4,0.4,0.7,0.7,1c0.6,0.6,1.4,1,2.3,1l0.9-0.1c0.5-0.2,1-0.4,1.4-0.8c0.2-0.3,0.5-0.6,0.7-0.8c0.2-0.3,0.3-0.7,0.4-1
	c0.1-0.4,0.2-0.9,0.2-1.3c0-0.2,0-0.4-0.1-0.7c0-0.2-0.1-0.4-0.1-0.7l-0.1-0.2c-0.1-0.3-0.3-0.7-0.4-1c0-0.1-0.1-0.2-0.1-0.2
	c-0.2-0.3-0.4-0.6-0.7-0.8c-0.3-0.3-0.6-0.6-1-0.9c-0.1-0.1-0.3-0.2-0.4-0.3c-0.3-0.2-0.7-0.3-1-0.4c-0.4-0.1-0.7-0.1-1.1-0.2
	c-0.1,0-0.2,0-0.3,0h-0.1c-0.3,0-0.7,0.1-1,0.1c-0.2,0.1-0.4,0.1-0.6,0.2c-0.2,0.1-0.4,0.2-0.6,0.3c-0.4,0.2-0.7,0.5-1,0.8
	c-0.5,0.5-0.8,1.1-1,1.8c-0.1,0.4-0.2,0.9-0.2,1.3c0,0.4,0,0.9,0.1,1.3c0,0.2,0.1,0.3,0.1,0.5c0.1,0.3,0.3,0.7,0.4,1l0.1,0.2
	c0.1,0.2,0.3,0.4,0.4,0.6c0.1,0.2,0.3,0.4,0.4,0.5c0.6,0.6,1.4,1.1,2.3,1.3c0.7,0.2,1.5,0.2,2.2,0c0.4-0.1,0.8-0.3,1.1-0.6
	c0.4-0.2,0.6-0.5,0.8-0.9c0.4-0.8,0.5-1.7,0.3-2.5l-0.3-0.8c-0.3-0.5-0.7-0.9-1.2-1.2l-0.8-0.3c-0.6-0.2-1.2-0.2-1.7,0
	L1347.6,1461.9z"/>
<path class="st0" d="M1294.2,1348.9h-0.1l0.9-0.1c-0.1,0-0.2,0-0.4,0l0.9,0.1c-0.1,0-0.2,0-0.3-0.1l0.8,0.3
	c-0.1-0.1-0.3-0.1-0.4-0.2l0.7,0.5c-0.1-0.1-0.2-0.2-0.3-0.3l0.5,0.7c-0.1-0.2-0.2-0.3-0.3-0.5l0.3,0.8c-0.1-0.2-0.1-0.4-0.2-0.6
	l0.1,0.9c0-0.2,0-0.4,0-0.5l-0.1,0.9c0-0.1,0.1-0.3,0.1-0.4l-0.3,0.8c0-0.1,0.1-0.2,0.2-0.3l-0.5,0.7c0.1-0.1,0.2-0.2,0.2-0.3
	l-0.7,0.5c0.1-0.1,0.2-0.1,0.3-0.2l-0.8,0.3l0.3-0.1l-0.9,0.1c0.1,0,0.2,0,0.4,0l-0.9-0.1c0.1,0,0.3,0.1,0.4,0.1l-0.8-0.3
	c0.2,0.1,0.3,0.2,0.5,0.3l-0.7-0.5c0.2,0.1,0.3,0.3,0.4,0.4l-0.5-0.7c0.1,0.2,0.2,0.3,0.3,0.5l-0.3-0.8c0.1,0.2,0.1,0.3,0.2,0.5
	l-0.1-0.9c0,0.1,0,0.3,0,0.4l0.1-0.9c0,0.1-0.1,0.2-0.1,0.4l0.3-0.8c0,0.1-0.1,0.2-0.2,0.3l0.5-0.7l0,0c-0.3,0.3-0.5,0.6-0.7,1
	c-0.4,0.8-0.4,1.7,0,2.5c0.1,0.4,0.4,0.7,0.7,1c0.6,0.6,1.4,1,2.3,1l0.9-0.1c0.5-0.1,1-0.4,1.4-0.8c0.5-0.5,0.9-1.1,1.1-1.8
	c0.1-0.4,0.2-0.9,0.2-1.3c0-0.2,0-0.4-0.1-0.7c0-0.2-0.1-0.4-0.1-0.7l-0.1-0.2c-0.1-0.3-0.3-0.7-0.4-1c0-0.1-0.1-0.2-0.1-0.2
	c-0.2-0.3-0.4-0.6-0.7-0.8c-0.3-0.3-0.6-0.6-1-0.8c-0.1-0.1-0.3-0.2-0.5-0.3c-0.3-0.2-0.7-0.3-1-0.4c-0.4-0.1-0.7-0.1-1.1-0.2h-0.4
	c-0.3,0-0.7,0.1-1,0.1c-0.2,0.1-0.4,0.1-0.6,0.2c-0.2,0.1-0.4,0.2-0.6,0.3c-0.4,0.2-0.7,0.5-1,0.8c-0.5,0.5-0.8,1.1-1,1.8
	c-0.1,0.4-0.2,0.9-0.2,1.3c0,0.4,0,0.9,0.1,1.3c0,0.2,0.1,0.3,0.1,0.5c0.1,0.3,0.3,0.7,0.4,1l0.1,0.2c0.1,0.2,0.3,0.4,0.4,0.6
	s0.3,0.4,0.4,0.5c0.3,0.3,0.7,0.6,1.1,0.8c0.4,0.2,0.8,0.4,1.2,0.5c0.7,0.2,1.5,0.2,2.2,0c0.4-0.1,0.8-0.3,1.1-0.6
	c1-0.8,1.5-2.2,1.2-3.4l-0.3-0.8c-0.3-0.5-0.7-0.9-1.2-1.2l-0.8-0.3C1295.5,1348.7,1294.9,1348.7,1294.2,1348.9L1294.2,1348.9z"/>
<path class="st0" d="M1326.6,1967.9h-0.1l0.9-0.1c-0.1,0-0.2,0-0.4,0l0.9,0.1l-0.3-0.1l0.8,0.3c-0.1-0.1-0.3-0.1-0.4-0.2l0.7,0.5
	c-0.1-0.1-0.2-0.2-0.3-0.3l0.5,0.7c-0.1-0.2-0.2-0.3-0.3-0.5l0.3,0.8c-0.1-0.2-0.1-0.4-0.2-0.6l0.1,0.9c0-0.2,0-0.4,0-0.5l-0.1,0.9
	c0-0.1,0.1-0.3,0.1-0.4l-0.3,0.8c0-0.1,0.1-0.2,0.2-0.3l-0.5,0.7c0.1-0.1,0.2-0.2,0.3-0.3l-0.7,0.5c0.1-0.1,0.2-0.1,0.3-0.2
	l-0.8,0.3c0.1,0,0.2-0.1,0.3-0.1l-0.9,0.1c0.1,0,0.2,0,0.4,0l-0.9-0.1c0.1,0,0.3,0.1,0.4,0.1l-0.8-0.3c0.2,0.1,0.3,0.2,0.5,0.3
	l-0.7-0.5c0.2,0.1,0.3,0.3,0.4,0.4l-0.5-0.7c0.1,0.2,0.2,0.3,0.3,0.5l-0.3-0.8c0.1,0.2,0.1,0.3,0.1,0.5l-0.1-0.9c0,0.1,0,0.3,0,0.4
	l0.1-0.9c0,0.1-0.1,0.2-0.1,0.4l0.3-0.8c0,0.1-0.1,0.2-0.2,0.3l0.5-0.7l0,0c-0.3,0.3-0.5,0.6-0.7,1c-0.4,0.8-0.4,1.7,0,2.5
	c0.1,0.4,0.4,0.7,0.7,1c0.6,0.6,1.4,1,2.3,1l0.9-0.1c0.5-0.1,1-0.4,1.4-0.8c0.2-0.3,0.5-0.5,0.6-0.8c0.2-0.3,0.3-0.7,0.4-1
	c0.1-0.4,0.2-0.9,0.2-1.3c0-0.2,0-0.4-0.1-0.7c0-0.2-0.1-0.4-0.1-0.7c0-0.1,0-0.2-0.1-0.2c-0.1-0.3-0.3-0.7-0.4-1
	c0-0.1-0.1-0.2-0.2-0.2c-0.2-0.3-0.4-0.6-0.7-0.8c-0.3-0.3-0.6-0.6-1-0.9c-0.1-0.1-0.3-0.2-0.5-0.3c-0.3-0.2-0.7-0.3-1-0.4
	c-0.4-0.1-0.7-0.1-1.1-0.2h-0.4c-0.3,0-0.7,0.1-1,0.1c-0.2,0.1-0.4,0.1-0.6,0.2c-0.2,0.1-0.4,0.2-0.6,0.3c-0.4,0.2-0.7,0.5-1,0.8
	c-0.8,0.8-1.2,1.9-1.2,3.1c0,0.4,0,0.9,0.1,1.3c0,0.2,0.1,0.3,0.1,0.5c0.1,0.3,0.3,0.7,0.4,1c0,0.1,0.1,0.2,0.1,0.2
	c0.1,0.2,0.3,0.4,0.4,0.6s0.3,0.4,0.4,0.5c0.3,0.3,0.7,0.6,1.1,0.8c0.4,0.2,0.8,0.4,1.2,0.5c0.7,0.2,1.5,0.2,2.2,0
	c0.4-0.1,0.8-0.3,1.1-0.6c0.4-0.2,0.6-0.5,0.8-0.9c0.2-0.4,0.4-0.8,0.4-1.2c0.1-0.4,0.1-0.9-0.1-1.3l-0.3-0.8
	c-0.3-0.5-0.7-0.9-1.2-1.2l-0.8-0.3C1327.7,1967.6,1327.1,1967.6,1326.6,1967.9L1326.6,1967.9z"/>
<circle class="st0" cx="1299.3" cy="1758.2" r="0.8"/>
<circle class="st0" cx="1262.5" cy="1459.1" r="0.8"/>
<circle class="st0" cx="1275.5" cy="1517.5" r="0.8"/>
<circle class="st0" cx="1342.3" cy="1514.1" r="0.8"/>
<circle class="st0" cx="1277.1" cy="1957.5" r="0.8"/>
<circle class="st0" cx="1305.3" cy="1834" r="0.8"/>
<circle class="st0" cx="1295.6" cy="1896.9" r="0.8"/>
<circle class="st0" cx="1320.7" cy="1667.8" r="0.8"/>
<circle class="st0" cx="1359.8" cy="1882.3" r="0.8"/>
<path class="st0" d="M1352.4,2474.8h-0.1l0.9-0.1h-0.4l0.9,0.1c-0.1,0-0.2,0-0.3-0.1l0.8,0.3c-0.1-0.1-0.3-0.1-0.4-0.2l0.7,0.5
	c-0.1-0.1-0.2-0.2-0.3-0.4l0.5,0.6c-0.1-0.2-0.2-0.3-0.3-0.5l0.3,0.8c-0.1-0.2-0.1-0.4-0.2-0.6l0.1,0.9c0-0.2,0-0.4,0-0.5l-0.1,0.9
	c0-0.1,0.1-0.3,0.1-0.4l-0.3,0.8c0-0.1,0.1-0.2,0.2-0.3l-0.5,0.6c0.1-0.1,0.2-0.2,0.2-0.2l-0.7,0.5c0.1-0.1,0.2-0.1,0.3-0.2
	l-0.8,0.3c0.1,0,0.2-0.1,0.3-0.1l-0.9,0.1c0.1,0,0.2,0,0.4,0l-0.9-0.1c0.1,0,0.3,0.1,0.4,0.1l-0.8-0.3c0.2,0.1,0.3,0.2,0.5,0.3
	l-0.7-0.5c0.2,0.1,0.3,0.3,0.4,0.4l-0.5-0.7c0.1,0.2,0.2,0.3,0.3,0.5l-0.3-0.8c0.1,0.2,0.1,0.3,0.1,0.5l-0.1-0.9c0,0.1,0,0.3,0,0.4
	l0.1-0.9c0,0.1-0.1,0.2-0.1,0.4l0.3-0.8c0,0.1-0.1,0.2-0.2,0.3l0.5-0.6l0,0c-0.3,0.3-0.5,0.6-0.7,1.1c-0.4,0.8-0.4,1.7,0,2.5
	c0.1,0.4,0.4,0.7,0.7,1c0.6,0.6,1.4,1,2.3,1l0.9-0.1c0.5-0.1,1-0.4,1.4-0.8c0.2-0.3,0.5-0.6,0.7-0.9c0.2-0.3,0.3-0.7,0.4-1
	c0.1-0.4,0.2-0.9,0.2-1.3c0-0.2,0-0.4-0.1-0.7c0-0.2-0.1-0.4-0.1-0.7l-0.1-0.2c-0.1-0.3-0.3-0.7-0.4-1c0-0.1-0.1-0.2-0.1-0.2
	c-0.2-0.3-0.4-0.6-0.7-0.9c-0.3-0.3-0.6-0.6-1-0.9c-0.1-0.1-0.3-0.2-0.5-0.3c-0.3-0.2-0.7-0.3-1-0.4c-0.4-0.1-0.7-0.1-1.1-0.2h-0.4
	c-0.3,0-0.7,0.1-1,0.1c-0.2,0.1-0.4,0.1-0.6,0.2c-0.2,0.1-0.4,0.2-0.6,0.3c-0.4,0.2-0.7,0.5-1,0.8c-0.5,0.5-0.8,1.1-1,1.8
	c-0.1,0.4-0.2,0.9-0.2,1.3c0,0.4,0,0.9,0.1,1.3c0,0.2,0.1,0.3,0.1,0.5c0.1,0.3,0.3,0.7,0.4,1l0.1,0.2c0.1,0.2,0.3,0.4,0.4,0.6
	c0.1,0.2,0.3,0.4,0.4,0.5c0.3,0.3,0.7,0.6,1.1,0.8c0.4,0.2,0.8,0.4,1.2,0.5c0.7,0.2,1.5,0.2,2.2,0c0.4-0.1,0.8-0.3,1.1-0.6
	c1-0.8,1.5-2.2,1.2-3.4l-0.3-0.8c-0.3-0.5-0.7-0.9-1.2-1.2l-0.8-0.3C1353.6,2474.6,1353,2474.6,1352.4,2474.8L1352.4,2474.8z"/>
<path class="st0" d="M1360.2,2416.3h-0.1l0.9-0.1c-0.1,0-0.2,0-0.4,0l0.9,0.1c-0.1,0-0.2-0.1-0.3-0.1l0.8,0.3
	c-0.1-0.1-0.3-0.1-0.4-0.2l0.7,0.5c-0.1-0.1-0.2-0.2-0.3-0.4l0.5,0.7c-0.1-0.2-0.2-0.3-0.3-0.5l0.3,0.8c-0.1-0.2-0.1-0.4-0.2-0.6
	l0.1,0.9c0-0.2,0-0.4,0-0.5l-0.1,0.9c0-0.1,0.1-0.3,0.1-0.4l-0.3,0.8c0-0.1,0.1-0.2,0.2-0.3l-0.5,0.7c0.1-0.1,0.2-0.2,0.2-0.3
	l-0.7,0.5c0.1-0.1,0.2-0.1,0.3-0.2l-0.8,0.3c0.1,0,0.2-0.1,0.3-0.1l-0.9,0.1c0.1,0,0.2,0,0.4,0l-0.9-0.1c0.1,0,0.3,0.1,0.4,0.1
	l-0.8-0.3c0.2,0.1,0.3,0.2,0.5,0.3l-0.7-0.5c0.2,0.1,0.3,0.3,0.4,0.4l-0.5-0.7c0.1,0.2,0.2,0.3,0.3,0.5l-0.3-0.8
	c0.1,0.2,0.1,0.3,0.1,0.5l-0.1-0.9c0,0.1,0,0.3,0,0.4l0.1-0.9c0,0.1-0.1,0.2-0.1,0.4l0.3-0.8c0,0.1-0.1,0.2-0.2,0.3l0.5-0.6l0,0
	c-0.3,0.3-0.5,0.6-0.7,1c-0.4,0.8-0.4,1.7,0,2.5c0.1,0.4,0.4,0.7,0.7,1c0.6,0.6,1.4,1,2.3,1l0.9-0.1c0.5-0.1,1-0.4,1.4-0.8
	c0.2-0.3,0.5-0.5,0.6-0.9c0.2-0.3,0.3-0.7,0.4-1c0.1-0.4,0.2-0.9,0.2-1.3c0-0.2,0-0.4-0.1-0.7c0-0.2-0.1-0.4-0.1-0.7
	c0-0.1-0.1-0.2-0.1-0.2c-0.1-0.3-0.3-0.7-0.4-1c0-0.1-0.1-0.2-0.2-0.2c-0.2-0.3-0.4-0.6-0.7-0.9c-0.3-0.3-0.6-0.6-1-0.9
	c-0.1-0.1-0.3-0.2-0.5-0.3c-0.3-0.2-0.7-0.3-1-0.4c-0.4-0.1-0.7-0.1-1.1-0.2h-0.4c-0.3,0-0.7,0.1-1,0.1c-0.2,0.1-0.4,0.1-0.6,0.2
	c-0.2,0.1-0.4,0.2-0.6,0.3c-0.4,0.2-0.7,0.5-1,0.8c-0.5,0.5-0.8,1.1-1,1.8c-0.1,0.4-0.2,0.9-0.2,1.3c0,0.4,0,0.9,0.1,1.3
	c0,0.2,0.1,0.3,0.1,0.5c0.1,0.3,0.3,0.7,0.4,1c0,0.1,0.1,0.2,0.1,0.2c0.1,0.2,0.3,0.4,0.4,0.6s0.3,0.4,0.4,0.5
	c0.3,0.3,0.7,0.6,1.1,0.8c0.4,0.2,0.8,0.4,1.2,0.5c0.7,0.2,1.5,0.2,2.2,0c0.4-0.1,0.8-0.3,1.1-0.6c0.4-0.2,0.6-0.5,0.8-0.9
	c0.2-0.4,0.4-0.8,0.4-1.2c0.1-0.4,0.1-0.9-0.1-1.3l-0.3-0.8c-0.3-0.5-0.7-0.9-1.2-1.2l-0.8-0.3
	C1361.3,2416.1,1360.7,2416.1,1360.2,2416.3L1360.2,2416.3z"/>
<path class="st0" d="M1349,3038.4h-0.1l0.9-0.1c-0.1,0-0.2,0-0.4,0l0.9,0.1c-0.1,0-0.2,0-0.3-0.1l0.8,0.3c-0.1-0.1-0.3-0.1-0.4-0.2
	l0.7,0.5c-0.1-0.1-0.2-0.2-0.3-0.4l0.5,0.7c-0.1-0.2-0.2-0.3-0.3-0.5l0.3,0.8c-0.1-0.2-0.1-0.4-0.2-0.6l0.1,0.9c0-0.2,0-0.4,0-0.5
	l-0.1,0.9c0-0.1,0.1-0.3,0.1-0.4l-0.3,0.8c0-0.1,0.1-0.2,0.2-0.3l-0.5,0.7c0.1-0.1,0.2-0.2,0.3-0.2l-0.7,0.5
	c0.1-0.1,0.2-0.1,0.3-0.2l-0.8,0.3c0.1,0,0.2-0.1,0.3-0.1l-0.9,0.1c0.1,0,0.2,0,0.4,0l-0.9-0.1c0.1,0,0.3,0.1,0.4,0.1l-0.8-0.3
	c0.2,0.1,0.3,0.2,0.5,0.3l-0.7-0.5c0.2,0.1,0.3,0.3,0.4,0.4l-0.5-0.7c0.1,0.2,0.2,0.3,0.3,0.5l-0.3-0.8c0.1,0.2,0.1,0.3,0.1,0.5
	l-0.1-0.9c0,0.1,0,0.3,0,0.4l0.1-0.9c0,0.1-0.1,0.2-0.1,0.4l0.3-0.8c0,0.1-0.1,0.2-0.2,0.3l0.5-0.7l0,0c-0.9,0.9-1.2,2.3-0.7,3.6
	c0.1,0.4,0.4,0.7,0.7,1c0.6,0.6,1.4,1,2.3,1l0.9-0.1c0.5-0.1,1-0.4,1.4-0.8c0.2-0.3,0.4-0.6,0.6-0.9c0.2-0.3,0.3-0.7,0.4-1
	c0.1-0.4,0.2-0.9,0.2-1.3c0-0.2-0.1-0.4-0.1-0.7c0-0.2-0.1-0.4-0.1-0.7c0-0.1,0-0.2-0.1-0.2c-0.1-0.3-0.3-0.7-0.4-1
	c0-0.1-0.1-0.2-0.1-0.2c-0.2-0.3-0.4-0.6-0.7-0.8c-0.3-0.3-0.6-0.6-1-0.9c-0.1-0.1-0.3-0.2-0.5-0.3c-0.3-0.2-0.7-0.3-1-0.4
	c-0.4-0.1-0.7-0.1-1.1-0.2h-0.2h-0.1c-0.3,0-0.7,0.1-1,0.1c-0.2,0.1-0.4,0.1-0.6,0.2c-0.2,0.1-0.4,0.2-0.6,0.3
	c-0.4,0.2-0.7,0.5-1,0.8c-0.5,0.5-0.8,1.1-1,1.8c-0.1,0.4-0.2,0.9-0.2,1.3c0,0.4,0,0.9,0.1,1.3c0,0.2,0.1,0.3,0.1,0.5
	c0.1,0.3,0.3,0.7,0.4,1c0,0.1,0.1,0.2,0.1,0.2c0.1,0.2,0.3,0.4,0.4,0.6c0.1,0.2,0.3,0.4,0.4,0.5c0.3,0.3,0.7,0.6,1.1,0.8
	c0.4,0.2,0.8,0.4,1.2,0.5c0.7,0.2,1.5,0.2,2.2,0c0.8-0.3,1.5-0.8,2-1.5c0.2-0.4,0.4-0.8,0.4-1.2c0.1-0.4,0.1-0.9-0.1-1.3l-0.3-0.8
	c-0.3-0.5-0.7-0.9-1.2-1.2l-0.8-0.3c-0.6-0.2-1.2-0.2-1.7,0L1349,3038.4z"/>
<circle class="st0" cx="1267.3" cy="2471.9" r="0.8"/>
<circle class="st0" cx="1280.3" cy="2530.3" r="0.8"/>
<circle class="st0" cx="1347.2" cy="2527" r="0.8"/>
<circle class="st0" cx="1281.9" cy="2970.3" r="0.8"/>
<circle class="st0" cx="1300.4" cy="2909.8" r="0.8"/>
<circle class="st0" cx="1364.7" cy="2895.2" r="0.8"/>
<path class="st0" d="M1333.6,2745.3c0,11.2-9.1,20.3-20.2,20.3s-20.3-9.1-20.3-20.2s9.1-20.3,20.2-20.3c0,0,0,0,0,0
	C1324.6,2725.1,1333.6,2734.1,1333.6,2745.3z M1313.4,2725.4c-11,0-19.9,8.9-19.9,19.9c0,11,8.9,19.9,19.9,19.9
	c11,0,19.9-8.9,19.9-19.9l0,0C1333.3,2734.3,1324.4,2725.4,1313.4,2725.4L1313.4,2725.4z"/>
<path class="st0" d="M1288.2,2704.9c0,5.6-4.5,10.1-10.1,10.1s-10.1-4.5-10.1-10.1s4.5-10.1,10.1-10.1c0,0,0,0,0,0
	C1283.6,2694.7,1288.2,2699.3,1288.2,2704.9C1288.2,2704.8,1288.2,2704.8,1288.2,2704.9z M1278.1,2694.9c-5.5,0-10,4.5-10,10
	c0,5.5,4.5,10,10,10s10-4.5,10-10c0,0,0,0,0,0C1288,2699.3,1283.6,2694.9,1278.1,2694.9L1278.1,2694.9z"/>
<path class="st0" d="M1328.6,2642.8c0,5.6-4.5,10.1-10.1,10.1s-10.1-4.5-10.1-10.1s4.5-10.1,10.1-10.1c0,0,0,0,0,0
	C1324.1,2632.7,1328.6,2637.2,1328.6,2642.8z M1318.5,2632.9c-5.5,0-10,4.5-10,10c0,5.5,4.5,10,10,10s10-4.5,10-10c0,0,0,0,0,0
	C1328.5,2637.3,1324,2632.9,1318.5,2632.9L1318.5,2632.9z"/>
<circle class="st0" cx="1296.4" cy="2694.7" r="0.8"/>
<circle class="st0" cx="1278.9" cy="2651.6" r="0.8"/>
<circle class="st0" cx="1333.6" cy="2705.7" r="0.8"/>
<path class="st0" d="M50.9,1846h-0.1l0.9-0.1c-0.1,0-0.2,0-0.4,0l0.9,0.1l-0.3-0.1l0.8,0.3c-0.1-0.1-0.3-0.1-0.4-0.2l0.7,0.5
	c-0.1-0.1-0.2-0.2-0.3-0.3l0.5,0.7c-0.1-0.2-0.2-0.3-0.3-0.5l0.3,0.8c-0.1-0.2-0.1-0.4-0.2-0.6l0.1,0.9c0-0.2,0-0.3,0-0.5l-0.1,0.9
	c0-0.1,0.1-0.3,0.1-0.4l-0.3,0.8c0.1-0.1,0.1-0.2,0.2-0.3l-0.5,0.7c0.1-0.1,0.2-0.2,0.2-0.2l-0.7,0.5c0.1-0.1,0.2-0.1,0.3-0.2
	l-0.8,0.3c0.1-0.1,0.2-0.1,0.3-0.1l-0.9,0.1h0.4l-0.9-0.1c0.1,0,0.3,0.1,0.4,0.1l-0.8-0.3c0.2,0.1,0.3,0.2,0.5,0.3l-0.7-0.5
	c0.2,0.1,0.3,0.3,0.4,0.4l-0.5-0.7c0.1,0.2,0.2,0.3,0.3,0.5l-0.3-0.8c0.1,0.2,0.1,0.3,0.1,0.5l-0.1-0.9c0,0.1,0,0.3,0,0.4l0.1-0.9
	c0,0.1,0,0.2-0.1,0.4l0.3-0.8c-0.1,0.1-0.1,0.2-0.2,0.3l0.5-0.7l0,0c-0.9,0.9-1.2,2.3-0.7,3.6c0.1,0.4,0.4,0.7,0.7,1
	c0.6,0.6,1.4,1,2.3,1l0.9-0.1c0.5-0.1,1-0.4,1.4-0.8c0.2-0.3,0.5-0.6,0.7-0.8c0.2-0.3,0.3-0.7,0.4-1c0.1-0.4,0.2-0.9,0.2-1.3
	c0-0.2,0-0.4-0.1-0.7c0-0.2-0.1-0.4-0.1-0.7l-0.1-0.2c-0.1-0.3-0.3-0.7-0.4-1c0-0.1-0.1-0.2-0.1-0.2c-0.2-0.3-0.4-0.6-0.7-0.8
	c-0.3-0.3-0.6-0.6-1-0.9c-0.1-0.1-0.3-0.2-0.5-0.3c-0.3-0.2-0.7-0.3-1-0.4c-0.4-0.1-0.7-0.1-1.1-0.2c-0.1,0-0.2,0-0.3,0h-0.2
	c-0.3,0-0.7,0.1-1,0.1c-0.9,0.2-1.6,0.7-2.2,1.3c-0.5,0.5-0.8,1.1-1,1.8c-0.3,0.9-0.3,1.8-0.1,2.6c0,0.2,0.1,0.3,0.1,0.5
	c0.1,0.3,0.3,0.7,0.4,1l0.1,0.2c0.1,0.2,0.3,0.4,0.4,0.6c0.1,0.2,0.3,0.4,0.4,0.5c0.3,0.3,0.7,0.6,1.1,0.8c0.4,0.2,0.8,0.4,1.2,0.5
	c0.7,0.2,1.5,0.2,2.2,0c0.4-0.1,0.8-0.3,1.1-0.6c0.4-0.2,0.6-0.5,0.8-0.9c0.2-0.4,0.4-0.8,0.4-1.2c0.1-0.4,0.1-0.9-0.1-1.3l-0.3-0.8
	c-0.3-0.5-0.7-0.9-1.2-1.2l-0.8-0.3C52.1,1845.8,51.5,1845.8,50.9,1846L50.9,1846z"/>
<path class="st0" d="M113.3,1622.8h-0.1l0.9-0.1h-0.4l0.9,0.1l-0.3-0.1l0.8,0.3c-0.1-0.1-0.3-0.1-0.4-0.2l0.7,0.5
	c-0.1-0.1-0.2-0.2-0.3-0.3l0.5,0.7c-0.1-0.2-0.2-0.3-0.3-0.5l0.3,0.8c-0.1-0.2-0.1-0.4-0.2-0.6l0.1,0.9c0-0.2,0-0.3,0-0.5l-0.1,0.9
	c0-0.1,0.1-0.3,0.1-0.4l-0.3,0.8c0-0.1,0.1-0.2,0.2-0.3l-0.5,0.7c0.1-0.1,0.2-0.2,0.3-0.2l-0.7,0.5c0.1-0.1,0.2-0.1,0.3-0.2
	l-0.8,0.3c0.1,0,0.2-0.1,0.3-0.1l-0.9,0.1h0.4l-0.9-0.1c0.1,0,0.3,0.1,0.4,0.1l-0.8-0.3c0.2,0.1,0.3,0.2,0.5,0.3l-0.7-0.5
	c0.2,0.1,0.3,0.3,0.4,0.4l-0.5-0.7c0.1,0.2,0.2,0.3,0.3,0.5l-0.3-0.8c0.1,0.2,0.1,0.3,0.1,0.5l-0.1-0.9c0,0.1,0,0.3,0,0.4l0.1-0.9
	c0,0.1-0.1,0.2-0.1,0.4l0.3-0.8c-0.1,0.1-0.1,0.2-0.2,0.3l0.5-0.7l0,0c-0.3,0.3-0.5,0.6-0.7,1c-0.4,0.8-0.4,1.7,0,2.5
	c0.1,0.4,0.4,0.7,0.7,1c0.6,0.6,1.4,1,2.3,1l0.9-0.1c0.5-0.2,1-0.4,1.4-0.8c0.2-0.3,0.5-0.5,0.6-0.8c0.2-0.3,0.3-0.7,0.4-1
	c0.1-0.4,0.2-0.9,0.2-1.3c0-0.2,0-0.4-0.1-0.7c0-0.2-0.1-0.4-0.1-0.7c0-0.1,0-0.2-0.1-0.2c-0.1-0.3-0.3-0.7-0.4-1
	c0-0.1-0.1-0.2-0.2-0.2c-0.2-0.3-0.4-0.6-0.7-0.8c-0.3-0.3-0.6-0.6-1-0.9c-0.1-0.1-0.3-0.2-0.5-0.3c-0.3-0.2-0.7-0.3-1-0.4
	c-0.4-0.1-0.7-0.1-1.1-0.2c-0.1,0-0.2,0-0.2,0h-0.1c-0.3,0-0.7,0.1-1,0.1c-0.2,0.1-0.4,0.1-0.6,0.2c-0.6,0.2-1.2,0.6-1.6,1.1
	c-0.5,0.5-0.8,1.1-1,1.8c-0.1,0.4-0.2,0.9-0.2,1.3c0,0.5,0,1,0.1,1.5c0,0.2,0.1,0.3,0.1,0.5c0.1,0.3,0.3,0.7,0.4,1
	c0,0.1,0.1,0.2,0.1,0.2c0.1,0.2,0.3,0.4,0.4,0.6c0.1,0.2,0.3,0.4,0.4,0.5c0.3,0.3,0.7,0.6,1.1,0.8c0.4,0.2,0.8,0.4,1.2,0.5
	c0.7,0.2,1.5,0.2,2.2,0c0.4-0.1,0.8-0.3,1.1-0.6c0.4-0.2,0.6-0.5,0.8-0.9c0.2-0.4,0.4-0.8,0.4-1.2c0.1-0.4,0.1-0.9,0-1.3l-0.3-0.8
	c-0.3-0.5-0.7-0.9-1.2-1.2l-0.8-0.3C114.5,1622.7,113.9,1622.7,113.3,1622.8L113.3,1622.8z"/>
<circle class="st0" cx="76" cy="1974.1" r="0.8"/>
<circle class="st0" cx="39.2" cy="1674.9" r="0.8"/>
<circle class="st0" cx="52.2" cy="1733.3" r="0.8"/>
<circle class="st0" cx="119" cy="1730" r="0.8"/>
<circle class="st0" cx="82" cy="2049.9" r="0.8"/>
<circle class="st0" cx="97.3" cy="1883.7" r="0.8"/>
<path class="st0" d="M134.5,2475.5h-0.1l0.9-0.1c-0.1,0-0.2,0-0.4,0l0.9,0.1c-0.1,0-0.2-0.1-0.3-0.1l0.8,0.3
	c-0.1-0.1-0.3-0.1-0.4-0.2l0.7,0.5c-0.1-0.1-0.2-0.2-0.3-0.4l0.5,0.7c-0.1-0.2-0.2-0.3-0.3-0.5l0.3,0.8c-0.1-0.2-0.1-0.4-0.2-0.6
	l0.1,0.9c0-0.2,0-0.4,0-0.5l-0.1,0.9c0-0.1,0.1-0.3,0.1-0.4l-0.3,0.8c0-0.1,0.1-0.2,0.2-0.3l-0.5,0.6c0.1-0.1,0.2-0.2,0.2-0.2
	l-0.7,0.5c0.1-0.1,0.2-0.1,0.3-0.2l-0.8,0.3c0.1,0,0.2-0.1,0.3-0.1l-0.9,0.1c0.1,0,0.2,0,0.4,0l-0.9-0.1c0.1,0,0.3,0.1,0.4,0.1
	l-0.8-0.3c0.2,0.1,0.3,0.2,0.5,0.3l-0.7-0.5c0.2,0.1,0.3,0.3,0.4,0.4l-0.5-0.7c0.1,0.2,0.2,0.3,0.3,0.5l-0.3-0.8
	c0.1,0.2,0.1,0.3,0.1,0.5l-0.1-0.9c0,0.1,0,0.3,0,0.4l0.1-0.9c0,0.1-0.1,0.2-0.1,0.4l0.3-0.8c0,0.1-0.1,0.2-0.2,0.3l0.5-0.6l0,0
	c-0.9,0.9-1.2,2.4-0.7,3.6c0.1,0.4,0.4,0.7,0.7,1c0.6,0.6,1.4,1,2.3,1l0.9-0.1c0.5-0.2,1-0.4,1.4-0.8c0.2-0.3,0.5-0.5,0.6-0.9
	c0.2-0.3,0.3-0.7,0.4-1c0.1-0.4,0.2-0.9,0.2-1.3c0-0.2,0-0.4-0.1-0.7c0-0.2-0.1-0.4-0.1-0.7c0-0.1,0-0.2-0.1-0.2
	c-0.1-0.3-0.3-0.7-0.4-1c0-0.1-0.1-0.2-0.1-0.2c-0.2-0.3-0.4-0.6-0.6-0.9c-0.3-0.3-0.6-0.6-1-0.9c-0.1-0.1-0.3-0.2-0.5-0.3
	c-0.3-0.2-0.7-0.3-1-0.4c-0.4-0.1-0.7-0.1-1.1-0.2h-0.4c-0.3,0-0.6,0.1-1,0.1c-0.2,0.1-0.4,0.1-0.6,0.2c-0.2,0.1-0.4,0.2-0.6,0.3
	c-0.4,0.2-0.7,0.5-1,0.8c-0.5,0.5-0.8,1.1-1,1.8c-0.3,0.9-0.3,1.8-0.1,2.6c0,0.2,0.1,0.3,0.1,0.5c0.1,0.3,0.3,0.7,0.4,1
	c0,0.1,0.1,0.2,0.1,0.2c0.1,0.2,0.3,0.4,0.4,0.6s0.3,0.4,0.4,0.5c0.3,0.3,0.7,0.6,1.1,0.8c0.4,0.2,0.8,0.4,1.2,0.5
	c0.7,0.2,1.5,0.2,2.2,0c0.4-0.1,0.8-0.3,1.1-0.6c0.4-0.2,0.6-0.5,0.8-0.9c0.2-0.4,0.4-0.8,0.4-1.2c0.1-0.4,0.1-0.9-0.1-1.3l-0.3-0.8
	c-0.3-0.5-0.7-0.9-1.2-1.2l-0.8-0.3C135.7,2475.3,135.1,2475.3,134.5,2475.5L134.5,2475.5z"/>
<path class="st0" d="M76.2,2387.3h-0.1l0.9-0.1h-0.4l0.9,0.1c-0.1,0-0.2,0-0.3-0.1l0.8,0.3c-0.1-0.1-0.3-0.1-0.4-0.2l0.7,0.5
	c-0.1-0.1-0.2-0.2-0.3-0.4l0.5,0.7c-0.1-0.2-0.2-0.3-0.3-0.5l0.3,0.8c-0.1-0.2-0.1-0.4-0.2-0.6l0.1,0.9c0-0.2,0-0.3,0-0.5l-0.1,0.9
	c0-0.1,0.1-0.3,0.1-0.4l-0.3,0.8c0.1-0.1,0.1-0.2,0.2-0.3l-0.5,0.7c0.1-0.1,0.2-0.2,0.3-0.2l-0.7,0.5c0.1-0.1,0.2-0.1,0.3-0.2
	l-0.8,0.3c0.1,0,0.2-0.1,0.3-0.1l-0.9,0.1c0.1,0,0.2,0,0.4,0l-0.9-0.1c0.1,0,0.3,0.1,0.4,0.1l-0.8-0.3c0.2,0.1,0.3,0.2,0.5,0.3
	l-0.7-0.5c0.2,0.1,0.3,0.3,0.4,0.4l-0.5-0.7c0.1,0.2,0.2,0.3,0.3,0.5l-0.3-0.8c0.1,0.2,0.1,0.3,0.2,0.5l-0.1-0.9c0,0.1,0,0.3,0,0.4
	l0.1-0.9c0,0.1-0.1,0.2-0.1,0.4l0.3-0.8c0,0.1-0.1,0.2-0.2,0.3l0.5-0.7l0,0c-0.3,0.3-0.5,0.6-0.7,1.1c-0.4,0.8-0.4,1.7,0,2.5
	c0.1,0.4,0.4,0.7,0.7,1c0.6,0.6,1.4,1,2.3,1l0.9,0c0.5-0.2,1-0.4,1.4-0.8c0.2-0.3,0.4-0.6,0.6-0.9c0.2-0.3,0.3-0.7,0.4-1
	c0.1-0.4,0.2-0.9,0.2-1.3c0-0.2-0.1-0.4-0.1-0.7c0-0.2-0.1-0.4-0.1-0.7c0-0.1-0.1-0.2-0.1-0.2c-0.1-0.3-0.3-0.7-0.4-1
	c0-0.1-0.1-0.2-0.1-0.2c-0.2-0.3-0.4-0.6-0.7-0.9c-0.3-0.3-0.6-0.6-1-0.9c-0.1-0.1-0.3-0.2-0.5-0.3c-0.3-0.2-0.7-0.3-1-0.4
	c-0.4-0.1-0.7-0.1-1.1-0.2h-0.4c-0.3,0-0.7,0.1-1,0.1c-0.2,0.1-0.4,0.1-0.6,0.2c-0.2,0.1-0.4,0.2-0.6,0.3c-0.4,0.2-0.7,0.5-1,0.8
	c-0.5,0.5-0.8,1.1-1,1.8c-0.1,0.4-0.2,0.9-0.2,1.3c0,0.4,0,0.9,0.1,1.3c0,0.2,0.1,0.3,0.1,0.5c0.1,0.3,0.3,0.7,0.4,1l0.1,0.2
	c0.1,0.2,0.3,0.4,0.4,0.6c0.1,0.2,0.3,0.4,0.4,0.5c0.3,0.3,0.7,0.6,1.1,0.8c0.4,0.2,0.8,0.4,1.2,0.5c0.7,0.2,1.5,0.2,2.2,0
	c0.4-0.1,0.8-0.3,1.1-0.6c0.3-0.2,0.6-0.5,0.8-0.9c0.2-0.4,0.4-0.8,0.4-1.2c0.1-0.4,0.1-0.9-0.1-1.3l-0.3-0.8
	c-0.3-0.5-0.7-0.9-1.2-1.2l-0.8-0.3C77.5,2387.2,76.9,2387.2,76.2,2387.3L76.2,2387.3z"/>
<path class="st0" d="M113.5,2981.5h-0.1l0.9-0.1c-0.1,0-0.2,0-0.4,0l0.9,0.1c-0.1,0-0.2,0-0.3-0.1l0.8,0.3c-0.1-0.1-0.3-0.1-0.4-0.2
	l0.7,0.5c-0.1-0.1-0.2-0.2-0.3-0.4l0.5,0.7c-0.1-0.2-0.2-0.3-0.3-0.5l0.3,0.8c-0.1-0.2-0.1-0.4-0.2-0.6l0.1,0.9c0-0.2,0-0.3,0-0.5
	l-0.1,0.9c0-0.1,0.1-0.3,0.1-0.4l-0.3,0.8c0-0.1,0.1-0.2,0.2-0.3l-0.5,0.7c0.1-0.1,0.2-0.2,0.3-0.2l-0.7,0.5
	c0.1-0.1,0.2-0.1,0.3-0.2l-0.8,0.3c0.1,0,0.2-0.1,0.3-0.1l-0.9,0.1h0.4l-0.9-0.1c0.1,0,0.3,0.1,0.4,0.1l-0.8-0.3
	c0.2,0.1,0.3,0.2,0.5,0.3l-0.7-0.5c0.2,0.1,0.3,0.3,0.4,0.4l-0.5-0.7c0.1,0.2,0.2,0.3,0.3,0.5l-0.3-0.8c0.1,0.2,0.1,0.3,0.1,0.5
	l-0.1-0.9c0,0.1,0,0.3,0,0.4l0.1-0.9c0,0.1-0.1,0.2-0.1,0.4l0.3-0.8c0,0.1-0.1,0.2-0.2,0.3l0.5-0.7l0,0c-0.9,0.9-1.2,2.3-0.7,3.6
	c0.1,0.4,0.4,0.8,0.7,1.1c0.6,0.6,1.4,1,2.3,0.9l0.9-0.1c0.5-0.1,1-0.4,1.4-0.8c0.2-0.3,0.4-0.6,0.6-0.9c0.2-0.3,0.3-0.7,0.4-1
	c0.1-0.4,0.2-0.9,0.2-1.3c0-0.2,0-0.4-0.1-0.7c0-0.2-0.1-0.4-0.1-0.7c0-0.1,0-0.2-0.1-0.2c-0.1-0.3-0.3-0.7-0.4-1
	c0-0.1-0.1-0.1-0.1-0.2c-0.2-0.3-0.4-0.6-0.7-0.8c-0.3-0.3-0.6-0.6-1-0.9c-0.1-0.1-0.3-0.2-0.5-0.3c-0.3-0.2-0.7-0.3-1-0.4
	c-0.4-0.1-0.7-0.1-1.1-0.2c-0.1,0-0.2,0-0.2,0h-0.1c-0.3,0-0.7,0.1-1,0.1c-0.2,0.1-0.4,0.1-0.6,0.2c-0.2,0.1-0.4,0.2-0.6,0.3
	c-0.4,0.2-0.7,0.5-1,0.8c-0.5,0.5-0.8,1.1-1,1.8c-0.1,0.4-0.2,0.9-0.2,1.3c0,0.4,0,0.9,0.1,1.3c0,0.2,0.1,0.3,0.1,0.5
	c0.1,0.3,0.3,0.7,0.4,1c0,0.1,0.1,0.1,0.1,0.2c0.1,0.2,0.3,0.4,0.4,0.6c0.1,0.2,0.3,0.4,0.4,0.5c0.3,0.3,0.7,0.6,1.1,0.8
	c0.4,0.2,0.8,0.4,1.2,0.5c0.7,0.2,1.5,0.2,2.2,0c0.4-0.1,0.8-0.3,1.1-0.6c0.4-0.2,0.6-0.5,0.8-0.9c0.2-0.4,0.4-0.8,0.4-1.2
	c0.1-0.4,0.1-0.9-0.1-1.3l-0.3-0.8c-0.3-0.5-0.7-0.9-1.2-1.2l-0.8-0.3C114.7,2981.3,114.1,2981.3,113.5,2981.5L113.5,2981.5z"/>
<circle class="st0" cx="49.5" cy="2472.6" r="0.8"/>
<circle class="st0" cx="61.6" cy="2592.9" r="0.8"/>
<circle class="st0" cx="129.3" cy="2527.7" r="0.8"/>
<ellipse transform="matrix(7.936052e-03 -1 1 7.936052e-03 -2976.126 3080.5608)" class="st0" cx="64.5" cy="3040.2" rx="0.8" ry="0.8"/>
<circle class="st0" cx="70.7" cy="2847.5" r="0.8"/>
<circle class="st0" cx="139.9" cy="2895.1" r="0.8"/>
<circle class="st0" cx="1278.4" cy="896" r="0.8"/>
<circle class="st0" cx="1267" cy="1013.9" r="0.8"/>
<circle class="st0" cx="1365" cy="803.1" r="0.8"/>
<circle class="st0" cx="1288" cy="781.6" r="0.8"/>
<circle class="st0" cx="1343.2" cy="940" r="0.8"/>
<circle class="st0" cx="1363.7" cy="1171.8" r="0.8"/>
<circle class="st0" cx="1317.2" cy="1210.5" r="0.8"/>
<circle class="st0" cx="1167.2" cy="1971.6" r="0.8"/>
<circle class="st0" cx="1121.4" cy="1945" r="0.8"/>
<circle class="st0" cx="1068" cy="1967.3" r="0.8"/>
<circle class="st0" cx="1183.2" cy="2500.9" r="0.8"/>
<circle class="st0" cx="1120.6" cy="2454.1" r="0.8"/>
<circle class="st0" cx="1084" cy="2496.6" r="0.8"/>
<circle class="st0" cx="1185.6" cy="2384.4" r="0.8"/>
<circle class="st0" cx="1157.4" cy="2437.7" r="0.8"/>
<circle class="st0" cx="1091.7" cy="2388.3" r="0.8"/>
<circle class="st0" cx="1327.2" cy="2416.5" r="0.8"/>
<circle class="st0" cx="1281.4" cy="2389.9" r="0.8"/>
<circle class="st0" cx="1228" cy="2412.3" r="0.8"/>
<circle class="st0" cx="216.2" cy="2798.8" r="0.8"/>
<circle class="st0" cx="196.4" cy="2939.2" r="0.8"/>
<circle class="st0" cx="251.5" cy="2956.1" r="0.8"/>
<circle class="st0" cx="188.8" cy="2861.4" r="0.8"/>
<circle class="st0" cx="314.4" cy="2927.3" r="0.8"/>
<circle class="st0" cx="348.8" cy="2881.1" r="0.8"/>
<rect x="1052.3" y="424.4" class="st1" width="1.8" height="1275.8"/>
<rect x="326.1" y="1833.2" class="st1" width="1.8" height="1248.1"/>
<path class="st1" d="M492.8,1329.5l-16.6-2.9c-0.7-1.9-2.2-3.4-4.1-4.2l-2.5-16.1l-2.6,16h0.2c-2.2,0.7-3.9,2.5-4.6,4.7l-16.1,2.5
	l16.6,2.9v-0.1c0.9,1.7,2.4,3,4.2,3.6H467l2.6,16.7l2.6-16.9c1.7-0.7,3.1-2.1,3.8-3.8v0.1L492.8,1329.5z"/>
</svg>
