<svg xmlns="http://www.w3.org/2000/svg" width="25.32" height="15.873" viewBox="0 0 25.32 15.873"><path d="M10.2,12.414a3.336,3.336,0,0,0,2.128-3.253c0-3.1-2.312-3.86-4.98-3.86H0V20.88H7.552c2.831,0,5.49-1.358,5.49-4.523A3.754,3.754,0,0,0,10.2,12.414ZM3.424,7.961H6.638c1.235,0,2.347.347,2.347,1.78,0,1.323-.866,1.855-2.088,1.855H3.424V7.961ZM7.086,18.234H3.424v-4.29H7.156c1.508,0,2.462.629,2.462,2.224,0,1.574-1.139,2.066-2.532,2.066ZM22.845,7.653H16.528V6.119h6.317V7.653ZM25.32,15.4c0-3.336-1.952-6.119-5.49-6.119a5.669,5.669,0,0,0-5.772,5.97c0,3.512,2.211,5.921,5.772,5.921a5.029,5.029,0,0,0,5.279-3.794H22.375a2.567,2.567,0,0,1-2.448,1.473,2.551,2.551,0,0,1-2.769-2.87h8.137C25.307,15.8,25.32,15.6,25.32,15.4Zm-8.159-1.372a2.421,2.421,0,0,1,2.572-2.409,2.309,2.309,0,0,1,2.47,2.409Z" transform="translate(0 -5.302)"/></svg>