<svg xmlns="http://www.w3.org/2000/svg" width="21.803" height="21.259" viewBox="0 0 21.803 21.259"><path d="M7.293,17.68c0,.088-.1.158-.229.158-.145.013-.246-.057-.246-.158s.1-.158.229-.158S7.293,17.579,7.293,17.68Zm-1.367-.2c-.031.088.057.189.189.215a.206.206,0,0,0,.273-.088c.026-.088-.057-.189-.189-.229A.226.226,0,0,0,5.926,17.482Zm1.943-.075c-.127.031-.215.114-.2.215s.127.145.259.114.215-.114.2-.2S8,17.394,7.869,17.407ZM10.761.563A10.541,10.541,0,0,0,0,11.288,11.021,11.021,0,0,0,7.451,21.8c.563.1.76-.246.76-.532S8.2,19.5,8.2,18.572c0,0-3.077.659-3.723-1.31,0,0-.5-1.279-1.222-1.609,0,0-1.007-.69.07-.677a2.32,2.32,0,0,1,1.7,1.134,2.324,2.324,0,0,0,3.2.919,2.443,2.443,0,0,1,.7-1.481c-2.457-.273-4.937-.629-4.937-4.857A3.332,3.332,0,0,1,5.029,8.1a4.153,4.153,0,0,1,.114-2.985C6.062,4.831,8.176,6.3,8.176,6.3a10.385,10.385,0,0,1,5.521,0s2.114-1.477,3.033-1.187A4.151,4.151,0,0,1,16.845,8.1a3.417,3.417,0,0,1,1.134,2.589c0,4.242-2.589,4.58-5.046,4.857a2.6,2.6,0,0,1,.747,2.04c0,1.481-.013,3.314-.013,3.675,0,.286.2.633.76.532A10.919,10.919,0,0,0,21.8,11.288,10.778,10.778,0,0,0,10.761.563ZM4.273,15.724c-.057.044-.044.145.031.229s.171.1.229.044.044-.145-.031-.229S4.33,15.667,4.273,15.724ZM3.8,15.368c-.031.057.013.127.1.171a.131.131,0,0,0,.189-.031c.031-.057-.013-.127-.1-.171C3.9,15.311,3.829,15.324,3.8,15.368Zm1.424,1.565c-.07.057-.044.189.057.273.1.1.229.114.286.044s.031-.189-.057-.273C5.411,16.875,5.279,16.862,5.222,16.933Zm-.5-.646c-.07.044-.07.158,0,.259s.189.145.246.1a.2.2,0,0,0,0-.273C4.906,16.273,4.791,16.229,4.721,16.286Z" transform="translate(0 -0.563)"/></svg>