<svg xmlns="http://www.w3.org/2000/svg" width="85.61" height="46.716" viewBox="0 0 85.61 46.716"><g transform="translate(-362.535 -243.865)"><g transform="translate(363.144 243.865)"><g transform="translate(0 4.425)"><path d="M534.461,307.1l.7-4.964a16.838,16.838,0,0,1-12.3,5.453q-6.363,0-10-4.265a13.009,13.009,0,0,1-2.8-10.627,17.566,17.566,0,0,1,16.99-14.892,12.537,12.537,0,0,1,10.767,5.453l.7-5.034h2.866L537.328,307.1Zm.21-22.932a10.112,10.112,0,0,0-8.04-3.566,13.481,13.481,0,0,0-9.019,3.5,13.887,13.887,0,0,0-4.754,8.6,10.355,10.355,0,0,0,2.377,8.53,9.981,9.981,0,0,0,8.04,3.566,13.479,13.479,0,0,0,9.019-3.5,13.889,13.889,0,0,0,4.754-8.6A10.365,10.365,0,0,0,534.671,284.169Z" transform="translate(-463.73 -271.553)" fill="#8368cf"/><g transform="translate(11.992)"><g transform="translate(0 1.085)"><path d="M413.241,282.506c-1.243-12.9,10.382-18.172,14.985-19.744a19.71,19.71,0,1,0,.26,36.551C413.049,295.827,413.241,282.506,413.241,282.506Z" transform="translate(-401.26 -261.378)" fill="#20c9ac"/><path d="M475.984,361.833l-1.052-.183a.458.458,0,0,0-.257-.265l-.159-1.02-.165,1.01.01,0a.456.456,0,0,0-.293.3l-1.021.159,1.049.186v0a.456.456,0,0,0,.263.227l-.009,0,.165,1.057.167-1.07a.46.46,0,0,0,.243-.244V362Z" transform="translate(-450.461 -329.222)" fill="#20c9ac"/></g><path d="M424.825,268.534a16.215,16.215,0,0,0-8.62,6.81c-.231.358.354.7.571.334a17.37,17.37,0,0,1,8.1-7.011c.076-.034.022-.158-.056-.133Z" transform="translate(-411.467 -265.195)" fill="#081329"/><path d="M413.643,294.174a.394.394,0,0,0,.2-.045.468.468,0,0,0,.275-.275.394.394,0,0,0,.045-.2l-.019-.138a.523.523,0,0,0-.134-.23.541.541,0,0,0-.368-.152.535.535,0,0,0-.52.52l.019.138a.518.518,0,0,0,.134.23.542.542,0,0,0,.368.153Z" transform="translate(-409.39 -282.057)" fill="#081329"/><path d="M408.282,299.2a6.731,6.731,0,0,0-1.122,2.361.3.3,0,0,0,.582.16,17.3,17.3,0,0,1,.8-2.413c.067-.16-.171-.225-.258-.109Z" transform="translate(-405.297 -286.174)" fill="#081329"/><path d="M433.57,332.367a19.739,19.739,0,0,0,3.322,9.46c.268.433.964.021.681-.4a23.177,23.177,0,0,1-3.8-9.09.1.1,0,0,0-.2.027Z" transform="translate(-423.405 -308.879)" fill="#081329"/><path d="M447.477,365.344a7.915,7.915,0,0,0,1.8,1.733c.394.281.8-.392.383-.655-.661-.418-1.285-.884-1.907-1.358-.16-.122-.4.119-.28.28Z" transform="translate(-432.914 -331.336)" fill="#081329"/><path d="M456.753,370.914l-.024-.014.161.21a.452.452,0,0,0-.122-.23.51.51,0,0,0-.323-.134.472.472,0,0,0-.323.134.507.507,0,0,0-.134.323.458.458,0,0,0,.457.457l.122-.016a.342.342,0,0,0,.155-.082.347.347,0,0,0,.118-.128.309.309,0,0,0,.05-.137l-.161.21.024-.014a.336.336,0,0,0,0-.58Z" transform="translate(-438.769 -335.252)" fill="#081329"/><path d="M484.213,269.583l.083-.061a.3.3,0,0,0,.089-.1.4.4,0,0,0,.046-.174l-.04.147a.361.361,0,0,0,.044-.095.319.319,0,0,0,0-.16.259.259,0,0,0-.184-.184.315.315,0,0,0-.16,0,.355.355,0,0,0-.095.044l.147-.04-.1.013-.073.031a.292.292,0,0,0-.1.091c-.021.027-.041.055-.061.083l-.03.071a.227.227,0,0,0-.005.119.283.283,0,0,0,.082.171.358.358,0,0,0,.132.077.227.227,0,0,0,.119.005.223.223,0,0,0,.111-.036Z" transform="translate(-457.807 -265.479)" fill="#20c9ac"/><path d="M433,383.79a16.569,16.569,0,0,0,11.45,2.386.154.154,0,0,0-.041-.3c-4.135.092-7.607-.259-11.362-2.165a.047.047,0,0,0-.047.081Z" transform="translate(-422.999 -344.133)" fill="#20c9ac"/><path d="M474.779,390.094A.33.33,0,0,0,475,390a.32.32,0,0,0,0-.451.32.32,0,0,0-.452,0,.319.319,0,0,0,0,.451.333.333,0,0,0,.226.093Z" transform="translate(-451.43 -348.076)" fill="#20c9ac"/><path d="M481.505,386.807l.633-.155c.172-.042.383-.035.5-.172a.089.089,0,0,0-.039-.147c-.178-.052-.35.065-.52.121l-.619.206a.076.076,0,0,0,.04.146Z" transform="translate(-456.195 -345.926)" fill="#20c9ac"/><path d="M469.376,257.991l-.025.033a.234.234,0,0,0,.012.2l-.019-.144,0,.013a.229.229,0,0,0,.1.257.413.413,0,0,0,.282.048.226.226,0,0,0,0-.433.342.342,0,0,0-.074-.012c.035.006.043.007.026,0-.054-.013.035.021,0,0a.238.238,0,0,0-.276.036l-.006.005.182-.048-.023-.009a.184.184,0,0,0-.094,0,.114.114,0,0,0-.081.049Z" transform="translate(-447.912 -257.93)" fill="#20c9ac"/><path d="M474.817,258.834a.868.868,0,0,0,.565.184c.32.043.642.075.959.139a.234.234,0,0,0,.283-.161.223.223,0,0,0,.009-.061.235.235,0,0,0-.23-.23c-.3,0-.595-.031-.893-.053a1.027,1.027,0,0,0-.677.059.079.079,0,0,0-.016.122Z" transform="translate(-451.659 -258.406)" fill="#20c9ac"/><path d="M419.615,377.038" transform="translate(-413.84 -339.564)" fill="#20c9ac"/></g><ellipse cx="21.056" cy="2.711" rx="21.056" ry="2.711" transform="translate(0 23.601) rotate(-14.594)" fill="none" stroke="#20c9ac" stroke-miterlimit="10" stroke-width="1"/></g><path d="M613.412,243.865s.387,5.431-3.453,5.37c0,0,3.519.341,3.929,5.326,0,0-.41-4.985,3.418-5.208A5.841,5.841,0,0,1,613.412,243.865Z" transform="translate(-532.307 -243.865)" fill="#20c9ac"/></g></g></svg>